<?xml version="1.0" encoding="UTF-8" standalone="no"?>
<svg
   xmlns:dc="http://purl.org/dc/elements/1.1/"
   xmlns:cc="http://creativecommons.org/ns#"
   xmlns:rdf="http://www.w3.org/1999/02/22-rdf-syntax-ns#"
   xmlns:svg="http://www.w3.org/2000/svg"
   xmlns="http://www.w3.org/2000/svg"
   xmlns:xlink="http://www.w3.org/1999/xlink"
   xmlns:sodipodi="http://sodipodi.sourceforge.net/DTD/sodipodi-0.dtd"
   xmlns:inkscape="http://www.inkscape.org/namespaces/inkscape"
   height="684"
   width="1200"
   version="1.0"
   id="svg2"
   inkscape:version="0.91 r13725"
   sodipodi:docname="World_map_longlat-simple.svg">
  <metadata
     id="metadata12">
    <rdf:RDF>
      <cc:Work
         rdf:about="">
        <dc:format>image/svg+xml</dc:format>
        <dc:type
           rdf:resource="http://purl.org/dc/dcmitype/StillImage" />
      </cc:Work>
    </rdf:RDF>
  </metadata>
  <defs
     id="defs10">
    <linearGradient
       inkscape:collect="always"
       id="linearGradient3443">
      <stop
         style="stop-color:#236887;stop-opacity:1"
         offset="0"
         id="stop3445" />
      <stop
         style="stop-color:#00ffff;stop-opacity:1"
         offset="1"
         id="stop3447" />
    </linearGradient>
    <linearGradient
       inkscape:collect="always"
       xlink:href="#linearGradient3443"
       id="linearGradient3449"
       x1="211.1111"
       y1="735.51514"
       x2="905.05048"
       y2="-722.06061"
       gradientUnits="userSpaceOnUse" />
  </defs>
  <sodipodi:namedview
     pagecolor="#ffffff"
     bordercolor="#666666"
     borderopacity="1"
     objecttolerance="10"
     gridtolerance="10"
     guidetolerance="10"
     inkscape:pageopacity="0"
     inkscape:pageshadow="2"
     inkscape:window-width="1476"
     inkscape:window-height="941"
     id="namedview8"
     showgrid="false"
     inkscape:zoom="0.99"
     inkscape:cx="598.9899"
     inkscape:cy="398.88595"
     inkscape:window-x="278"
     inkscape:window-y="264"
     inkscape:window-maximized="0"
     inkscape:current-layer="svg2" />
  <path
     d="M 364.37896,0.20560229 C 266.14751,34.389631 175.0348,98.78757 110.21014,188.16126 79.417756,236.0027 58.509711,294.98448 61.179015,354.35626 c 6.875482,77.34233 45.062275,147.67445 97.970465,197.29594 59.46085,59.38179 130.69327,106.0632 207.71249,130.01392 l 468.75706,0 c 97.73647,-33.93103 188.26417,-97.91295 253.15187,-186.44562 31.4089,-48.06144 52.7381,-107.70324 50.0382,-167.70504 -6.8398,-77.21233 -44.9084,-147.45444 -97.7365,-197.03594 C 981.58476,70.990733 910.26234,24.206325 833.13512,0.20560229 c -156.25235,-0.00387 -312.50471,-0.00387 -468.75706,-0.00387 z"
     id="path4"
     inkscape:connector-curvature="0"
     style="fill:url(#linearGradient3449);stroke:#291e74;stroke-width:0.75894439;fill-opacity:1"
     inkscape:export-xdpi="6.6737828"
     inkscape:export-ydpi="6.6737828" />
  <path
     style="fill:#d4aa00"
     d="m 462.44842,24.542205 c -5.46446,1.285292 -10.08114,2.994145 -15.69544,2.500075 -11.89308,-2.422707 -12.54579,6.984602 -1.26895,5.500166 8.8935,6.193898 -9.20855,-3.207178 -5.12081,7.750233 -13.88968,-5.916237 -2.5836,7.120041 -12.65355,2.032061 -14.43372,4.937364 9.08855,8.11061 14.65147,4.625139 -0.72492,-3.773647 13.07191,-8.360768 19.04331,-9.875297 4.34963,-4.957428 30.01383,-6.029562 19.74529,-11.532347 -6.27132,-0.501477 -12.52963,0.174008 -18.70132,-1.00003 z m 65.40963,0.719022 c -11.44891,1.069186 -18.35309,3.919423 -25.75707,4.813144 -8.33126,-0.589548 -12.84863,-1.97452 -23.20116,3.000091 -7.39121,2.078126 -10.01142,7.765665 -23.42615,9.344281 17.44066,5.864066 -2.64493,1.045256 1.55617,6.619852 3.51295,2.087712 25.38411,0.248159 16.46817,15.850108 1.94547,7.901576 -0.46603,3.227724 1.91893,11.462868 -9.61026,5.790007 -10.26102,14.893031 -9.36865,26.690999 0.88043,11.52729 17.95286,11.96455 15.74943,-0.37001 9.31524,-1.93598 6.63337,-12.686743 19.51512,-12.132706 8.94897,-7.732502 18.18361,-7.883455 29.28111,-11.683014 4.56815,-4.28708 -8.9546,-1.991846 -3.44288,-5.53607 -2.71917,-2.428775 1.84302,-4.603035 10.47163,1.441947 -10.22484,-13.158139 1.64607,-5.305887 -3.68987,-10.406314 4.33026,5.963923 24.55417,-18.077519 11.44759,-8.875267 -8.58435,-3.196807 8.9671,-4.481125 -0.33299,-7.719232 5.23017,-10.879828 12.06643,-8.601614 5.5978,-11.031332 14.48757,-0.889486 13.10738,-6.967112 -0.96296,-3.375102 -12.76221,8.353094 -0.5973,-4.527598 -10.66118,-1.923936 -23.91482,0.68858 12.68576,-0.706113 7.05681,-3.154309 -19.14643,0.854133 -2.81652,-4.180327 -18.21985,-3.015998 z m -94.1276,3.907117 c -11.46279,-0.243496 -10.94645,16.784055 -8.0997,11.218338 9.47991,-3.167895 14.75879,-1.408855 8.0997,-11.218338 z m 308.38286,0.624019 c -7.21162,6.713196 0.87286,3.693642 3.93286,7.126214 11.91803,4.479158 10.24829,-2.960388 3.42888,-3.282098 -3.06149,0.202804 -3.34147,-4.369417 -7.36174,-3.844116 z m -6.64176,0.188006 c -6.93137,0.585861 5.27747,2.914527 0,0 z m -45.81734,0.094 c -5.95321,-0.886986 0.66934,3.226755 0,0 z m -10.48462,1.594048 c -4.05492,2.807838 8.8189,-0.439435 0,0 z m 12.79753,0.624019 c -6.25358,3.727481 5.38806,2.435002 0,0 z m 25.58608,0.250008 c -4.87619,0.572583 5.33475,2.085365 0,0 z m -41.5605,0.626019 c 4.39054,3.162939 14.56582,0.270001 0,0 z m -6.49776,0.468014 c -14.49494,0.67756 -1.82545,5.523741 2.47491,1.750052 l -1.57495,-0.968029 -0.89996,-0.782023 z m 19.2953,0.063 c -13.24792,0.741632 -7.12429,7.470329 0,0 z m -283.46276,0.719021 c -7.81361,7.744865 14.59035,5.020339 0,0 z m 268.32531,1.156035 c 0.57319,4.320633 4.88569,-0.112203 0,0 z m -279.34991,0.094 c -13.07773,0.01031 4.79025,5.08103 0,0 z m 366.06177,0 c -7.39183,9.384859 15.85134,2.469882 0,0 z m -345.02953,1.062032 c -9.04296,6.414663 9.47813,4.602484 0,0 z m 202.88867,0.188005 c -7.4096,4.176279 13.91812,6.81137 11.75357,1.156035 -5.11114,-2.612232 -7.37166,1.412806 -11.75357,-1.156035 z m -227.69177,1.156035 c -22.00047,3.654125 12.89645,1.49908 0,0 z m 221.05901,0 c 0.17726,8.588306 -9.60436,-5.224882 -7.82072,5.31216 -3.36206,4.546307 12.00024,-1.777268 7.19974,2.31307 -2.78042,1.870846 -0.15121,1.741009 1.65594,5.250158 4.08816,-4.156144 6.63557,-6.878032 13.22052,-1.875057 3.52054,-3.348886 -6.084,-4.735169 -9.70165,-9.406283 -0.62903,2.154214 -2.22904,-1.584269 -4.55383,-1.594048 z m -231.21065,0.531016 c -8.73009,0.619374 -23.81791,7.681163 -7.11874,2.844086 -0.7897,1.224152 7.17454,1.576178 7.11874,-2.844086 z m 388.61496,0.094 c 2.31696,3.816297 5.32205,-1.210737 0,0 z m -371.26358,0.875026 c -1.02432,5.515258 4.89774,0.07345 0,0 z m 432.51537,1.500046 c -1.3007,10.763051 22.06521,0.831418 9.28766,1.250037 -0.90085,-1.504583 -6.24551,1.076742 -9.28766,-1.250037 z m -62.12476,0.187005 c -2.87348,3.846123 -4.52848,8.255859 -10.70961,6.500196 -2.85208,0.956725 -18.32845,4.542313 -8.4147,9.750293 -10.20839,-1.11754 -12.76695,3.712417 -6.07478,8.188247 -8.11441,-3.166367 -11.91663,-3.660226 -7.45173,0.531016 -2.53797,-0.990624 4.4432,8.009952 -6.75079,-4.088954 -3.72224,-1.536431 0.94368,13.619039 6.6158,13.58924 5.73617,-1.383166 16.6325,12.128465 6.38077,3.938118 -9.8143,-10.519344 -0.58711,10.663953 -9.98064,7.187217 6.8503,-9.311544 -7.64908,-15.281915 -8.07271,-24.625742 -9.61516,-2.776898 -10.23862,12.435518 -2.42091,13.781415 9.51407,10.875568 -19.50288,-8.456271 -16.87439,-1.406042 -12.15515,-6.081437 9.2391,7.155161 -0.56698,5.500166 -3.30737,-2.99979 -9.23721,-0.156065 -11.75358,4.34413 2.21049,-7.716642 -1.01642,-4.118625 -6.47076,-1.781053 -4.39446,7.025962 -10.37723,4.302069 -8.63069,-0.782024 -11.73392,-8.218078 2.37222,8.722066 -3.45588,8.156246 -10.20774,-3.114528 -1.33178,10.027243 -9.67465,5.532166 -7.70955,-3.192505 4.03837,9.345807 -8.2437,-0.469014 -6.06005,-9.764043 -5.34219,-6.334013 6.10178,-4.344131 12.35575,-0.672394 2.64534,-9.402408 -3.45588,-10.31231 -8.10953,-0.363702 -8.77959,-3.741274 -13.19352,-3.094093 -6.65179,0.02747 2.88215,-5.268261 -7.37073,-3.906118 1.19797,-3.685305 -7.86522,5.441412 -3.90586,-1.157035 -3.66632,5.011186 -8.96972,1.537621 -8.15371,5.500166 -3.10137,0.06714 -7.15715,4.920839 -8.41469,2.563077 -4.75481,4.872326 -3.79063,5.421274 -7.81172,8.813265 -0.98909,-0.07853 -1.61407,6.610386 -5.84979,8.093244 -5.58568,5.453656 2.61604,3.398116 -7.51473,6.559196 -1.50919,3.78002 -8.59929,3.65179 -7.92871,8.97027 1.93712,2.05389 0.31743,5.69774 3.85186,7.22022 -1.31559,11.02583 12.84061,-9.16033 14.14749,0.88003 6.01756,-6.58602 4.74477,0.28207 0.081,2.06006 2.31803,5.51593 3.27544,13.01078 7.11875,5.50016 7.04218,0.75104 3.16836,-9.18514 5.28281,-11.66035 -3.27243,-0.86558 8.5711,-0.92545 -0.63898,-8.06024 -1.48863,-6.51415 8.52958,-6.88822 8.4057,-12.28137 -2.87048,-6.324928 14.22285,-4.51818 6.21877,1.250037 -6.88452,2.170797 -8.04516,14.335383 -1.04396,15.901483 2.14497,2.91137 11.74706,-4.10868 15.44344,-0.34001 2.91375,1.53416 -4.22377,2.73941 -5.34581,2.47007 -5.24462,-3.24615 -9.13696,5.84016 -10.71861,1.34004 -1.05817,3.86772 -2.00873,3.51033 4.72483,3.91012 1.9907,9.30535 -8.33868,-3.60792 -7.84772,5.69017 3.65501,4.7761 -3.30038,13.29646 -4.46383,6.93021 -2.18423,-0.74557 -11.7786,5.59987 -16.09142,1.69005 -3.20576,3.17892 -9.96866,-3.6178 -3.68087,-7.12022 -1.68478,-4.46356 -0.53063,-7.61375 -4.86882,-1.07003 -4.99594,4.28199 4.77103,15.82499 -6.97475,14.41044 -7.92696,-0.83493 -3.25842,2.90004 -6.94775,7.81023 -4.61961,3.23963 -16.1942,8.66692 -13.9225,7.75023 -4.729,1.81249 -11.98645,3.48893 -1.20595,6.91021 3.64999,5.05724 3.06583,18.45178 -5.90379,14.75045 -5.9805,-1.10812 -16.07565,-3.20632 -13.53551,5.97018 0.39764,6.36175 -5.96365,18.71625 3.29388,17.69053 3.10363,3.99962 4.8098,4.60688 9.92664,1.87006 6.04793,0.53817 10.84478,-6.17263 9.81865,-11.47035 6.68499,-3.80041 8.03268,-13.74053 14.39948,-13.4304 6.45935,2.39275 13.96286,-10.49831 16.4784,0.18 4.34675,6.45353 16.9861,9.35895 13.44551,18.22055 6.01139,-2.27586 -0.45127,-13.75755 5.98479,-7.03021 -1.64224,-6.59644 -10.10246,-8.32529 -15.57844,-16.4405 -3.36761,-7.83355 8.31864,-7.59531 7.34374,0.63002 6.05624,2.64562 12.69894,6.87291 12.23055,14.65044 4.82864,-1.82959 1.65797,1.69126 5.03982,6.16019 0.90612,0.39969 -0.47252,7.29091 3.05989,6.5602 2.56394,2.50384 4.85827,-6.63296 2.6999,-3.72012 -4.59226,-3.78065 -1.51744,-0.68847 1.12496,-2.93008 -7.29992,-6.03814 4.81028,3.92526 -1.68294,-3.38011 -5.06352,-5.6593 2.57328,-4.32615 2.41192,-3.66011 -1.91245,-4.30455 8.76887,-0.43001 11.81657,-2.93008 3.43545,2.09603 -10.39825,4.92289 -5.90379,9.53028 2.66335,1.35301 1.84725,7.69201 7.37074,7.19022 4.95659,0.85718 11.19007,1.95151 17.65736,-0.1 5.39558,5.96946 0.20489,14.21305 -1.12496,20.88062 -9.72015,-2.59654 -18.28945,2.11351 -27.02602,-3.4701 -11.3388,-10.17001 -11.68828,9.5679 -20.36054,3.82037 -6.17514,-2.56025 -10.52686,-6.88263 -17.86108,-8.2605 -2.87816,-2.85311 1.67198,-20.43403 -8.54969,-10.75033 3.1931,2.05176 -14.32715,-2.39671 -20.89725,1.25004 -5.60321,6.68309 -13.50138,4.17236 -18.62033,2.56008 -2.35212,8.72277 -14.61507,10.2391 -11.60958,21.44064 -6.02462,7.42632 -15.21158,10.2015 -17.09938,21.31064 -10.28719,8.86609 0.92987,24.55384 -6.89375,36.00109 0.26699,9.02771 3.84471,12.84292 8.80168,19.10057 2.763,9.59827 10.50363,16.19834 18.22434,21.25064 9.2498,-5.82957 20.05727,1.29398 28.24098,-6.6602 11.14675,-6.97978 7.94938,11.8905 18.55733,6.6602 11.33198,1.13501 -0.48453,17.68742 6.32677,24.28073 9.68927,8.46997 9.93083,22.70675 11.50159,35.09106 -10.66613,11.76114 -4.23364,29.38435 1.52094,41.22124 -1.30745,13.75725 8.60537,24.61589 10.41263,37.35113 -0.66936,11.77162 12.54642,5.27831 19.51129,4.43013 12.49453,-3.05633 22.52285,-18.17775 24.07413,-31.56095 13.98965,-3.16909 0.96794,-19.79119 10.27435,-26.03913 11.77754,-6.48297 15.88017,-16.11314 14.44285,-30.44758 -7.05812,-10.49718 -6.21118,-26.778 2.87581,-34.76604 9.47845,-12.48948 22.87396,-21.68989 26.54904,-38.84117 4.93359,-11.50419 -0.40071,-13.6456 -9.98064,-9.50028 -6.38619,4.92275 -15.37335,0.9278 -12.32056,-5.54017 -5.15663,-8.89508 -12.80655,-7.86777 -13.36452,-19.18058 -7.92478,-5.92988 -6.60815,-20.42754 -12.00556,-25.41076 -2.21488,-5.80394 -15.34132,-29.40203 -4.80583,-14.50044 3.97322,-8.92024 -0.2298,-3.65447 7.53273,6.7502 5.54051,7.68267 8.37364,17.433 14.39948,25.69078 6.61959,7.53408 6.36555,17.62288 9.76465,26.5008 8.0589,-1.74846 16.99545,-7.30553 24.8571,-12.28037 3.58685,-6.38368 10.8169,-6.41245 14.87646,-12.25037 1.47724,-7.23359 10.34858,-18.01164 -2.95189,-19.56059 -3.39104,-13.05735 -4.10559,-5.05951 -11.61858,-0.16001 -10.87673,3.5974 -1.38548,-5.07151 -6.68676,-7.75023 0.94722,18.7723 -7.81024,-20.24259 -7.54173,-7.09021 -6.56672,-10.49975 6.237,-10.04811 7.19974,-0.29001 6.79959,8.24745 15.79985,-1.01766 19.4303,8.72026 7.87283,3.59545 18.71291,-0.16057 25.46008,1.07003 -0.20945,6.21392 15.65301,8.47482 10.06164,11.03033 -4.23272,6.99441 12.35708,4.39172 8.46869,0.97003 2.79823,12.81067 6.01847,27.57673 13.44551,40.00121 0.99821,10.25443 8.95213,19.34593 10.96161,5.68017 5.90282,-5.68017 -3.71853,-22.23528 5.82279,-24.18073 3.89134,-7.78014 12.6429,-14.34384 14.31848,-22.04066 6.2809,3.89474 9.81307,-1.78589 8.49569,-4.28013 4.17026,4.61247 9.41482,10.92703 12.79754,17.60053 -1.94041,16.82553 8.61387,2.36031 10.88061,7.37022 3.46374,12.52439 6.74241,20.60495 5.03082,33.351 3.37687,-0.83823 8.82319,9.89222 8.1627,17.15052 3.09098,6.95725 16.95401,14.28355 8.71169,1.85006 1.8699,-12.05508 -12.72508,-12.1362 -12.40155,-23.54071 -5.79931,1.06565 0.10369,-12.8559 1.12495,-15.65047 2.55307,2.25155 8.06245,12.46057 8.4687,8.28025 2.67113,0.9639 7.86952,3.12778 5.4538,9.41028 4.61633,-4.03563 9.06876,-7.35322 11.59158,-14.76045 1.39742,-13.96429 -9.22125,-17.86479 -14.39948,-27.71083 0.0223,-4.87305 5.34492,-14.10139 9.18867,-9.60029 2.0663,10.47088 4.68731,-3.75377 10.88961,-3.75011 -0.71334,-5.04597 9.97761,-0.0784 11.0246,-9.06027 2.86377,-6.28638 4.46023,-13.52965 4.97682,-19.9106 -0.55035,-2.85894 -0.16524,-11.74918 -3.20388,-10.65032 -2.98915,-5.69965 -13.26033,-9.61632 -11.1146,-17.88054 9.20773,-4.39045 -0.42176,-8.22557 -5.6788,-4.87015 -8.26921,0.12475 -2.12665,-10.77827 2.22292,-13.50041 -0.15693,13.95561 7.93135,-2.45469 12.40155,6.84021 4.05622,6.92741 8.47989,7.11801 10.79961,17.06051 12.66253,-2.15037 -0.1259,-15.09869 -5.5078,-19.84059 0.32139,-12.06668 3.1863,-15.29317 9.74246,-20.36244 3.95188,-13.35007 -2.93393,-26.46512 -9.10348,-35.26924 -6.15155,-7.57902 -9.84956,-0.64768 -13.21152,-4.09012 -1.27103,1.83808 -8.966,-3.11298 -4.69783,-10.84033 -1.32482,-12.702704 9.27387,-10.342344 16.5324,-12.252366 6.11431,2.224636 11.76229,1.697487 5.29181,-6.563198 1.11091,-11.49956 13.78233,5.566227 8.94567,-6.500196 1.67291,-6.98595 7.37247,10.213273 6.01179,15.813476 -2.24429,10.347714 14.32777,17.387094 20.39326,25.592774 -2.0145,-8.53512 1.82342,-13.55614 -5.09418,-19.0589 4.47967,-2.47763 -5.8462,-5.756036 -9.3053,-9.815972 -4.25418,-9.297495 1.81275,-4.300327 3.68087,-9.344282 8.38045,4.962831 4.44034,-11.637753 10.8896,-11.531347 -10.77397,-4.097193 -10.53514,-3.968027 -13.52945,-10.652249 1.56008,-1.928212 22.614,6.430767 17.00333,0.495943 0.58723,-2.777571 -8.36278,-9.291206 -10.44862,-4.34413 -2.33617,-0.866422 -16.22801,-6.295763 -23.51615,-6.031182 -20.08633,-3.836325 -13.43259,3.498938 -16.39741,3.188096 -4.07639,-5.600116 -12.94371,4.793572 -19.82629,-1.876056 -8.06398,-2.339429 -16.24466,1.479145 -24.15512,-1.31204 -5.38491,-1.690501 -8.94276,0.463706 -17.87679,-2.541043 -2.59034,1.949091 6.6097,8.308971 -6.19734,5.197123 -5.24393,1.134004 -7.6602,6.39993 -12.71654,0 -2.18609,-4.725205 -14.5783,1.474925 -14.0035,-2.65608 -5.31907,1.794288 -14.93777,-1.811154 -20.64525,-0.188006 -6.2374,-0.5734 -2.98743,0.932079 -9.67465,4.876147 -8.94679,4.392135 11.5501,-12.810158 6.16478,-10.563318 -3.76664,-5.85079 -18.85063,-5.837466 -16.39741,-4.094123 -3.36808,-1.434845 -4.18376,-0.702841 -7.34374,-2.750083 z m -350.16835,0.625019 c -6.25382,-1.116439 -4.02082,3.931491 0,0 z m 435.01729,0.094 c -15.83137,-0.699725 4.46044,4.560688 0,0 z m -462.52029,0.188006 c -5.38784,7.215096 -15.87729,-2.421537 -19.66429,4.687141 4.48948,1.564105 5.54141,3.994125 17.97235,1.781053 8.12262,-4.028232 -3.80005,-0.806439 1.69194,-6.468194 z m 437.01521,0.593017 c 0.0555,4.475222 4.75962,1.480591 0,0 z m -429.0055,0.625019 c -7.39585,0.344876 0.37612,9.321315 0,0 z m 13.10353,0.375011 c 1.06385,3.64024 0.0183,12.061668 10.8896,10.031302 12.1784,3.433887 14.78237,-7.92553 1.04396,-3.374101 -11.08391,0.210952 1.53299,-6.264157 -11.93356,-6.657201 z m -8.71169,0.438014 c -13.36453,6.398933 9.10205,5.533199 1.20596,0.250007 l -1.20596,-0.250007 z m 516.18535,1.406042 c -8.44824,5.500023 11.49339,3.017587 0,0 z m -211.77135,1.625049 c -5.63558,3.686947 -19.89438,14.190841 -19.2953,9.688292 0.6818,4.946267 -7.78296,9.572969 1.85393,14.124425 12.33711,5.899817 2.79575,-14.048817 1.04396,-9.593289 4.0734,-6.175459 13.96421,-8.718036 17.43237,-13.781415 l -1.03496,-0.438013 z m 133.78017,0 c 1.83671,4.047223 4.29976,-1.070364 0,0 z m -482.83256,0.625019 c -6.40596,-0.924746 -23.54084,12.213488 -8.71168,10.375312 6.50845,-5.105514 25.80158,-6.563084 8.86421,-10.34838 l -0.15253,-0.02693 z m 488.29536,0.34401 c -7.82588,2.691697 11.12084,3.284887 0,0 z M 833.712,48.449925 c 2.13515,3.50216 4.33303,-0.296088 0,0 z M 409.57533,48.63693 c -12.13841,0.631062 3.20874,6.846779 0,0 z m -121.49561,1.688051 c -9.81217,1.676167 -22.40297,2.781067 -29.89692,8.187246 2.7921,10.192742 -2.5672,4.070955 -9.5406,4.72728 -15.37782,2.689404 -4.7652,6.869008 -1.12402,7.711095 -4.4124,6.538358 -20.23918,0.985232 -19.73628,10.219308 -6.91607,1.932915 0.20997,10.593363 -3.77087,9.781294 3.24129,1.669476 8.50365,1.766629 -2.92425,6.788897 -7.18069,1.637621 -21.28937,5.984779 -5.93143,4.402439 10.04657,-3.522366 20.22282,-6.81604 28.62797,-12.722382 6.24905,-5.089338 17.86256,-7.095061 17.65736,2.156065 8.89976,-0.551017 3.88362,7.88 8.63969,9.216277 3.82626,-0.10048 1.97561,10.84896 -0.09,14.22043 -1.33159,3.22469 -3.79993,14.59434 -2.47491,10.31031 3.66012,-0.40592 -4.23602,8.4287 1.77294,14.94045 -1.0828,10.78899 -9.88751,-1.28064 -12.79754,14.94045 -5.13181,7.34485 -17.10767,20.72381 -12.23056,28.00084 -3.36481,5.30585 -3.0046,17.58807 3.50987,20.97063 -3.25126,6.98081 -4.78581,26.39679 -1.03496,23.47071 2.07356,2.93784 4.43446,13.9711 7.19974,20.96063 3.58929,-5.44716 -1.4051,-17.26524 -2.56491,-25.50077 -2.9989,-14.73774 6.83323,-10.93632 4.16685,1.76006 4.55268,6.4228 3.22247,13.05822 8.85568,21.68065 0.47499,11.89653 -0.48118,21.02745 11.22133,27.3 5.90995,10.1475 17.74633,-0.23055 21.57349,9.86112 3.86894,4.84626 11.21382,6.36676 15.35344,7.81023 1.04692,1.34168 1.91736,14.0073 6.16478,13.06039 1.57952,4.896 6.48279,7.46206 10.65562,9.07028 1.2835,6.44264 5.21652,-9.21481 8.72068,-2.04006 1.24137,1.8509 2.23511,8.64659 0.87297,19.29058 -2.07776,6.70561 -7.80473,8.19572 -9.19767,15.65047 -5.26156,10.47763 8.93775,4.47915 -1.37695,12.97039 -2.95676,10.66287 9.89473,15.44254 11.22763,27.30934 5.06089,9.77312 8.1648,21.27008 19.47926,24.22221 13.24341,8.11942 8.01646,28.41303 10.41263,42.66128 0.6026,12.92597 5.63398,26.69886 3.59987,39.8112 2.74707,8.218 4.90819,14.3852 9.44965,19.47059 1.94242,10.55386 3.02721,11.95835 -2.16892,15.09045 3.72676,-2.07851 7.37333,5.60537 6.15578,5.72018 -2.1675,6.6131 2.33306,3.06113 7.59573,12.50037 1.25594,2.79679 5.94284,2.44943 7.92871,7.13022 1.43699,-5.77881 3.12462,-5.84203 4.07685,-1.60005 4.24971,4.8952 -3.63152,4.02842 3.91486,6.41019 0.67318,3.52309 3.61257,0.80281 9.19767,-0.91003 -6.12382,-1.84309 -19.16251,-11.11189 -14.23749,-19.72059 2.22504,-10.16271 -7.06186,-13.41585 -2.24992,-22.84069 6.36426,-5.95036 -6.04443,-6.24039 -0.55798,-10.94033 1.07856,-7.62049 13.4666,-6.12482 15.27245,-18.22055 -12.28188,-12.93406 -3.43247,-3.29495 6.72276,-8.96027 2.64246,-11.64828 4.25354,-17.37569 4.63483,-10.0403 7.67297,-9.67426 -0.27764,-23.44957 9.59365,-30.93093 10.62194,-2.47302 16.81356,-8.23584 17.52237,-21.97066 0.39195,-13.04702 -0.28785,-22.34729 8.4057,-32.06097 8.75484,-14.24494 -3.31402,-19.17531 -11.53888,-25.99016 -11.14054,-0.46233 -15.48632,-4.93666 -25.0178,-9.05089 -2.65244,7.99066 -3.9973,-9.66076 -10.07064,2.41007 -5.85568,1.70822 8.79373,-13.11319 0.30599,-19.72059 -4.44885,-7.6355 -12.03057,-6.88084 -18.05335,-9.06027 -4.18724,-1.54794 -7.90707,-9.3981 -11.27659,-14.13043 -3.81802,-5.13376 -12.14619,-0.43145 -18.64732,-3.12009 -5.89926,-6.56476 -6.30297,-8.20367 -10.97061,0.19 -1.22135,12.81809 -4.24752,-5.30381 1.04396,-6.41019 -2.91367,-3.0171 -8.23497,5.93333 -12.94153,4.81014 -1.8083,5.40067 -5.22772,15.15885 -8.71168,6.75021 -5.83867,-4.14292 -12.71303,5.28343 -15.69544,-4.81015 -2.29674,-8.15498 8.05352,-26.97795 -5.82279,-22.75068 -12.39381,3.04767 0.92979,-18.1027 -0.72897,-15.00045 9.1853,-15.015 -12.6725,-7.29194 -12.23956,2.75008 -6.66513,2.03755 -15.76215,1.24598 -16.00142,-9.8703 0.99645,-10.19391 3.32658,-24.25739 10.32263,-29.60089 4.65135,-12.20016 24.77239,3.81587 19.43929,-7.56023 9.56412,1.83713 22.14109,-1.1051 18.63833,12.72039 4.244,21.20908 8.01597,-4.48644 6.81276,-13.41041 4.54462,-11.10805 22.25164,-12.15216 21.17623,-24.90075 2.14471,-16.6128 1.37583,4.41266 5.03082,-4.10012 6.55466,-8.08206 7.21548,-8.88173 12.65354,-11.09033 5.28943,-3.25818 11.07696,-13.47405 17.91835,-13.41041 13.60641,-2.097 2.86067,-2.28077 1.26896,6.03018 6.38161,-5.06977 19.35529,-5.99858 6.15578,-11.09033 -4.51861,-7.44023 11.13236,-11.95947 -5.60058,-8.93249 -13.87957,9.25675 5.19592,-9.6368 12.49433,-5.90796 7.94907,2.08634 26.4342,-2.3095 22.94917,-12.47037 -15.60494,0.86247 5.38746,-0.29264 -6.55177,-7.38022 -1.47723,-2.78453 3.04291,-27.937595 -6.24577,-12.68039 -12.62689,2.10325 -1.45574,-11.64342 -11.1146,-15.036449 -11.27896,-4.746937 -15.96809,10.362419 -17.68436,20.436619 -9.39275,5.35092 -12.02011,15.73651 -18.22434,21.34064 -5.65248,-7.09963 6.13327,-17.78495 -7.45173,-19.03057 -7.85902,-6.95063 -11.31988,-9.28743 -7.84772,-16.6205 9.09407,-8.5449 16.6304,-13.104618 24.96752,-15.649175 5.68529,-6.522874 -0.16203,-2.24462 10.4642,-8.165546 6.10301,7.87757 24.09326,-12.247437 10.88961,-10.93733 -10.59316,13.912034 -6.18904,-1.973523 -13.27452,3.843116 2.14419,-6.423418 1.74103,-15.574815 10.09858,-16.563894 15.24897,-4.989991 -6.99135,-8.182492 -7.84866,2.345466 -11.51063,3.88806 -3.37588,9.784427 -10.18764,13.93742 -9.8184,5.038452 -1.81308,-3.161936 -13.66455,0.59548 -16.6167,-8.155741 -8.2293,-3.173614 -12.5425,-1.90752 -2.06566,4.88641 -15.15848,-0.571997 -12.09556,-5.688171 -11.69026,-1.426024 -10.80298,-6.568203 -17.35137,-3.937119 1.62975,-8.040624 -16.93825,0.395618 -21.51823,3.3121 3.30292,-9.937212 -9.03042,-8.154586 -14.53447,-12.62538 -2.90695,-1.122789 -9.14154,-0.679652 -7.45173,-4.187126 z m 79.42213,2.125064 c -18.9403,3.271865 -7.81079,7.392762 -12.96853,7.469225 1.77412,4.496697 6.35003,1.515641 -5.42681,6.156185 5.13695,7.91802 16.45997,0.655388 25.0281,5.125154 8.04873,-1.555545 0.52966,-12.223566 11.19559,-17.313521 -9.58283,-1.173249 -11.28684,8.803906 -13.49951,2.219067 -2.80404,-3.598309 -8.45048,3.136322 -4.32884,-3.65611 z m 29.83392,0.469014 c -5.05,1.038182 -16.70444,7.008037 -6.19354,9.17171 4.21563,-0.01934 9.35338,-8.151363 6.19354,-9.17171 z m 21.26623,2.65608 c -13.01203,0.607291 -9.57771,11.032303 -14.62447,12.000361 2.88641,4.763424 35.72954,2.59471 19.65529,1.875057 -1.58186,10.206766 5.56905,2.518618 3.59987,13.062393 -3.12563,7.572539 -20.90941,4.134516 -15.18245,10.125305 7.39845,-8.54448 9.86568,15.421975 17.18038,8.004245 -0.88859,-3.622294 8.93232,-3.608463 6.57876,-13.879422 0.73916,8.215346 19.06439,-1.241683 7.42321,-4.86694 -7.36336,-7.344853 3.5734,-5.828036 0.39751,-10.133512 -4.15554,-0.09864 -2.67976,-6.150072 -7.50573,-5.00015 -0.49423,-6.642441 -7.51188,-3.955345 -13.36452,-4.250128 13.02733,-8.554158 -9.74827,-5.910755 -8.63069,2.31307 -5.41112,-4.173005 9.85139,-8.863073 4.47284,-9.250279 z m 128.69535,0.968029 c -2.72244,2.922705 4.76263,-0.291525 0,0 z M 429.7346,57.075184 c -8.64184,6.400219 13.31238,2.425433 1.43995,0.906028 l -1.43995,-0.906028 z m 287.11663,2.687081 c 0.13504,4.56806 7.12723,-0.372393 0,0 z M 385.4112,68.356524 c -13.59887,1.424274 3.45336,9.119976 0,0 z m 179.54351,3.844116 c -6.06734,0.08333 -1.91265,6.007899 0,0 z m -94.82957,0.781023 c -5.29542,5.782851 10.13929,4.908821 0,0 z m 158.27728,0.469014 c -5.66369,1.801861 3.60071,2.658277 0,0 z m -8.4057,3.187096 c -3.94261,1.757487 1.91266,1.220545 0,0 z m 61.25179,0.875026 c -1.91736,6.572982 7.39366,-0.154837 0,0 z m -259.61362,0.094 c -13.24343,7.447652 9.30133,2.672683 0,0 z m 3.12289,1.063032 c -0.34464,4.875097 5.84324,-0.547221 0,0 z m 188.59718,0.718022 c -6.91795,4.287066 3.95228,6.542274 0,0 z m -4.15784,3.125094 c -5.24963,1.112928 -0.31861,5.063162 0,0 z m -212.89631,2.750083 c -11.78171,11.273124 -5.56196,7.379302 3.40204,9.183226 6.65228,3.145101 -1.30126,-8.996222 -3.40204,-9.183226 z m -141.71788,0.531016 c -11.61169,2.811877 -15.25617,11.120447 -0.64798,4.344131 2.31064,-0.19858 4.63947,-4.048547 0.64798,-4.344131 z m 389.40693,3.813115 c 0.53404,-0.25958 0.49836,1.245179 0,0 z m -99.08642,0.375011 c -5.99064,3.147741 -8.88591,4.88348 -14.79547,0.34401 -5.02832,0.760424 0.0518,12.139705 8.52756,10.907885 6.14729,-1.07893 16.10365,-4.876253 6.26791,-11.251895 z M 944.543,92.013236 c -1.02058,5.077077 3.36219,1.427876 0,0 z m -538.88253,3.031091 c -0.0899,5.032163 3.31497,-1.568083 0,0 z m -168.04193,0.063 c -4.9798,-0.08268 0.10335,3.980945 0,0 z m 159.54624,1.250038 c -7.50016,-1.456924 -6.37605,8.464713 0,0 z m -163.79409,0.531016 c -15.59272,1.305233 5.48037,6.484427 0,0 z m 167.08797,1.532046 c -6.01773,3.722711 3.34442,3.786061 0,0 z m -130.2973,3.622111 c -4.73057,2.16902 -1.1296,12.84612 -2.7269,11.66035 2.48313,-2.30701 4.73908,-8.21064 2.7269,-11.66035 z m -66.70559,0.28001 c -8.926,-1.03101 -1.76988,5.9759 0,0 z m -9.68365,2.13006 c -14.42741,2.74191 -9.69495,7.13687 0,0 z m 769.00422,0.72002 c 1.66917,5.07454 7.87904,2.42054 0,0 z m 5.39981,1.31004 c 0.43342,3.38562 5.42536,1.25648 0,0 z m -404.79638,0.28001 c -5.89898,-0.6334 1.25209,4.17554 0,0 z m -1.28695,2.56008 c -1.3038,1.79768 3.32529,1.84964 0,0 z m 13.91349,2.94009 c -5.42309,3.97424 0.67638,5.19805 0,0 z m 327.28218,3.03009 c -5.8369,0.73637 5.87369,2.71873 0,0 z m 12.94153,1.41004 c 2.1395,5.82365 11.31265,14.8709 17.89066,25.45998 8.54455,12.99729 5.65318,2.4296 -1.55625,-5.61938 10.75217,5.08115 -13.54133,-17.42891 -16.33441,-19.8406 z m -653.66438,0.28001 c -11.16449,16.30838 5.51929,3.38196 0,0 z m 307.84288,2.12006 c -3.79023,1.2675 -11.28509,8.33307 -6.32677,9.7903 -1.24504,4.51867 2.65393,4.89685 3.51887,8.97027 5.314,1.82636 -11.06878,9.48512 -0.39599,10.74032 -3.33125,1.95769 -7.26735,6.25199 7.16127,2.4283 8.50826,-2.01104 3.45495,-7.47716 1.16343,-13.26863 -7.25195,-5.66403 -2.07751,-14.34186 -6.97475,-14.90045 0.20116,-1.2619 2.51715,-2.11045 1.85394,-3.76011 z m -182.12642,2.50008 c -7.42732,1.22448 3.14227,4.08874 0,0 z m 173.72072,0.19 c -4.48305,1.56161 1.77691,2.58771 0,0 z m 77.5952,0.19001 c 4.64066,-0.0746 1.8093,1.45001 0,0 z m -79.67412,2.38007 c -3.15128,2.81979 2.28302,1.66679 0,0 z m 397.81262,1.43004 c -3.40586,3.25763 2.42388,3.73469 0,0 z m -351.01432,2.85009 c -6.82572,3.96154 4.84337,6.88304 0,0 z m -4.32884,1.84005 c -3.9944,3.51544 4.48337,2.45115 0,0 z m 355.51416,0.19001 c -0.896,4.65939 3.32493,3.96735 0,0 z m -695.98986,0.81002 c -0.94912,14.32563 11.32103,9.75776 0.87297,0.06 l -0.87297,-0.06 z m 342.47363,1.75006 c 0.77456,3.18303 3.75079,0.0744 0,0 z m -43.81942,0.28001 c -3.62801,1.5553 -7.95176,2.7637 -8.63969,6.6602 1.64161,4.38561 -5.65884,8.39431 2.3217,7.17675 7.41111,-1.03839 7.43812,-9.28305 6.31799,-13.83695 z m -184.52033,0.35001 c -2.30215,4.52329 6.29884,-0.0377 0,0 z m 582.33296,3.12009 c 0.54137,4.15727 3.16581,1.16036 0,0 z m 1.60194,3.72011 c -2.47279,1.87668 0.87648,4.29047 0,0 z m -523.78107,2.84009 c -5.52415,3.73936 -12.42538,19.2248 -12.09557,15.03045 10.81023,-1.52383 11.51606,4.01346 10.32263,3.3801 6.46995,0.33724 4.75581,-13.51865 3.94186,-9.9703 -8.75599,2.27567 -2.20097,-6.66704 -2.16892,-8.44025 z m 521.95414,1.88005 c -2.88268,3.33705 1.04944,3.13177 0,0 z m -544.50733,3.37011 c 1.58616,6.87552 8.9727,1.25277 0,0 z m 542.5094,0 c -4.17738,1.97066 -0.97071,7.28091 0,0 z m -601.29528,1.25003 c -1.76162,9.43981 12.84022,9.68264 10.24163,17.78054 -12.21729,4.87264 -5.82964,6.47869 -11.06924,-4.97215 -5.45351,6.34879 -15.35149,22.72897 -9.00903,3.3521 13.58523,-6.35451 10.17217,-10.87045 -2.49602,-8.91911 -7.82615,-2.37538 11.13081,-7.32339 12.33266,-7.24138 z m 584.64588,1.25004 c 4.97192,6.71551 3.22104,7.68589 2.24992,12.78039 9.14014,7.79891 -3.30478,-3.96185 7.02875,-0.87003 8.81797,-0.51187 0.76669,-9.65947 -7.10975,-11.13034 l -2.16892,-0.78002 z m 13.7515,2.75008 c -3.73984,1.10206 0.94098,5.50785 0,0 z m -543.60736,6.75021 c -2.03453,7.2357 9.44627,0.92505 0,0 z m 8.80169,0.35001 c -9.91162,8.19905 3.34121,5.95216 0,0 z m 257.75968,0.37001 c -0.37722,2.83528 -7.39447,9.28315 0.80997,10.85032 7.94386,3.6122 13.64201,13.5358 1.18796,13.78042 -6.89739,-2.03738 -14.0507,-7.68012 -20.47426,-1.10003 -10.64822,3.58511 -8.98784,-9.88074 -6.07478,-13.50041 2.46205,-3.9771 4.4109,-10.3527 10.79961,-5.50017 -3.55026,2.04043 2.55775,9.48449 6.07478,4.16013 4.44917,0.37648 -5.88933,-6.7035 5.6788,-8.25025 0.68719,0.0501 1.31591,-0.38848 1.99792,-0.44001 z m 32.08384,0 c 12.65783,0.63196 1.79892,10.51303 1.01697,9.41028 -0.8732,4.24291 10.51272,8.51382 8.3247,17.68053 5.20298,1.511 8.17218,16.98114 -3.04333,12.29755 -13.51802,-3.40323 1.30815,-15.98993 -9.58322,-18.94775 -6.8293,-7.80866 -9.03232,-16.14056 3.28488,-20.44061 z m -79.75511,4.88015 c -3.8557,0.71717 -7.05717,-0.0648 0,0 z m 317.91351,1.97005 c 4.18923,7.79382 4.03655,18.21996 -0.87297,18.12055 5.47708,7.63391 -18.50422,9.89477 -5.67879,13.78041 1.61595,-11.13259 11.38481,6.44349 11.18659,-3.03009 -2.84273,-5.12718 6.39998,0.42894 7.62273,-5.06015 -2.94928,-7.85327 -4.19735,-23.89169 -12.25756,-23.81072 z m -571.59635,0.87003 c -3.7663,9.5433 -17.62506,-0.45876 -1.76393,0.63002 l 1.76393,-0.63002 z m -9.22467,4.75014 c -11.49228,9.85657 -17.9134,-0.70466 -0.054,0.06 l 0.054,-0.06 z m 232.28161,7.78024 c -6.10871,6.0003 5.02166,7.85402 0,0 z m 32.78582,3.91012 c 3.06373,0.37218 3.08886,0.58352 0,0 z m -33.43379,2.93008 c -5.96408,9.85629 6.24966,6.28222 0,0 z m 46.8793,0.44002 c -3.57492,-0.48183 -0.55237,2.7842 0,0 z m -63.19571,3.3801 c -3.38151,5.46042 6.83117,1.44255 0,0 z m 58.72287,0.09 c -1.93462,0.15166 0.37718,2.06102 0,0 z m -62.23275,0.63002 c -3.38009,3.35007 2.73596,0.66966 0,0 z m 63.33071,0.28001 c 0.63762,2.29926 1.75742,-0.35872 0,0 z m -142.36585,2.22007 2.33991,0 -2.33991,0 z m -4.07685,0.25 c 0.65319,2.50926 5.38837,-0.70611 0,0 z m 122.23358,0.81003 c -14.30523,-4.06827 -2.77602,9.92745 -0.89997,2.84008 0.63898,-0.76024 0.77274,-1.86254 0.89997,-2.84008 z m 24.46111,0.34001 c 1.6813,4.16713 4.77772,1.63118 0,0 z m 302.81206,1.06003 c -4.76075,0.29672 -2.95606,9.83811 0.31499,3.66011 2.20367,1.54024 1.84946,-4.20512 -0.31499,-3.66011 z m -440.93006,1.44004 1.52094,0 -1.52094,0 z m 141.0789,0.97003 c -0.35019,0.99075 0.79231,0.98256 0,0 z m 291.35547,0.09 c -3.93801,6.2671 2.74047,3.00839 3.68987,10.32032 5.28646,-0.489 -0.90236,-11.4644 -3.68987,-10.32032 z m -431.7234,2.13007 0.63898,0.91003 -0.63898,-0.91003 z m 147.81966,0.19 c -2.28976,1.12968 0.93274,3.1104 0,0 z m -38.33862,1.50005 c -1.55469,1.52213 3.27369,1.09849 0,0 z m 55.91498,1.44004 c -4.33419,-0.0225 -7.26241,5.17743 -1.66494,2.93009 0.37293,-1.11322 1.59791,-1.61036 1.66494,-2.93009 z m -29.67192,0.71002 c 3.22362,4.64478 14.25884,1.03289 0,0 z m 313.89065,1.10004 c -5.60392,0.83248 5.66977,2.60009 0,0 z m -102.42529,20.56062 c 5.69705,0.4738 -0.20596,2.80957 0,0 z m -316.48257,4.19012 c -2.46258,0.16832 -0.16163,2.45181 0,0 z m -12.79754,1.06003 c -0.30878,3.42041 2.20417,0.009 0,0 z m 10.88961,0.81003 c -3.80631,4.50702 2.49184,1.32995 0,0 z m -6.64176,0.35001 c -4.41833,3.82006 3.30517,0.66131 0,0 z m 1.99793,1.34004 c -2.57924,3.78617 3.652,0.31313 0,0 z m -3.99586,0.34001 c -1.98139,0.65199 1.75841,1.19341 0,0 z m 397.90262,0 c -7.08736,11.98985 6.11115,18.64325 2.30392,1.00003 l -0.95396,-1.00003 -1.34996,0 z m -573.62127,0.91003 c -6.41613,0.39284 5.04941,0.9374 0,0 z m 2.16892,0.25001 c -3.17596,6.31929 3.17049,2.83025 0,0 z m 171.21882,0.09 c -1.89841,2.89095 3.11182,-0.34751 0,0 z m 212.11333,0.53001 c -5.09095,1.98708 2.84256,0.67364 0,0 z m -621.29255,3.38011 c -3.81451,1.06542 2.64506,2.76428 0,0 z m 239.70634,1.59004 c -4.34723,0.26255 2.05129,4.83175 0,0 z m -4.86883,0.72003 c -3.77495,4.18291 2.62422,3.04044 0,0 z m -231.71462,0.35001 c -2.34315,3.39613 3.41729,1.0752 0,0 z m 237.8704,1.53004 c -0.0892,3.78104 2.98697,1.04139 0,0 z m -234.82851,0.72002 c -3.59753,-0.5119 0.53046,2.0644 0,0 z m -0.1404,1.40005 c -0.53734,3.88885 3.99226,0.63306 0,0 z m -1.43455,0.19 c -1.5921,1.49625 2.09423,0.7792 0,0 z m 235.19751,2.12007 c 0.22329,1.95025 2.52575,0.40644 0,0 z m 1.69193,0 c -0.65821,4.66018 2.97653,1.20338 0,0 z m -21.59922,0.97002 c -14.22861,8.90666 2.06162,-0.83221 6.15578,5.69018 6.30479,1.50352 10.27101,15.23271 15.60544,5.16015 -7.34518,-2.66212 -13.04814,-12.0173 -21.76122,-10.85033 z m -213.15729,0.47002 c -6.46595,8.20217 6.68762,4.36906 0,0 z m 237.22243,1.32004 c -1.3068,5.1145 3.39447,1.16557 0,0 z m 3.12288,1.53004 c -0.91141,1.65492 3.20064,-0.28541 0,0 z m 532.75375,5.12016 c -8.52811,18.71385 14.15166,-0.71259 0,0 z m -534.58068,0.56002 c -3.13443,1.9642 3.80228,0.2765 0,0 z m 572.8023,4.07012 c -6.66463,0.6853 -7.07422,14.16677 -0.55798,16.90051 1.47962,8.9514 3.39477,-15.40896 0.55798,-16.90051 z m -571.92933,1.15003 c 4.20526,3.89022 -12.01363,5.92343 -0.33299,6.16019 1.69678,0.65756 16.86016,0.60103 10.48462,-3.94012 -3.23017,-1.96414 -6.41899,-1.73244 -10.15163,-2.22007 z m 16.6224,4.72014 c -1.23495,5.87744 9.26522,-0.74403 0,0 z m -33.01981,0.19001 c -3.62214,5.6211 13.96774,0.99165 0,0 z m 40.47154,0.09 c -4.15623,1.41624 4.35143,2.76432 0,0 z m 7.11874,4.07013 c -3.92414,2.57956 3.11702,2.08281 0,0 z m 0.47698,4.46013 c -3.02414,2.01214 1.50052,3.49812 0,0 z m 611.14997,0.07 c -2.01679,1.53387 1.8046,1.64678 0,0 z m -67.20962,2.31007 c -0.97068,6.75837 13.78534,6.72491 0,0 z m 66.30962,0.81003 c -2.77525,2.67991 2.5501,1.70785 0,0 z m -610.55596,0.72002 c -1.50695,3.02436 2.01202,0.86435 0,0 z m 539.35952,2.03006 c -1.54776,7.74661 11.27337,4.58203 0,0 z m -538.09956,0.1 c -3.30276,1.27433 1.43802,2.27497 0,0 z m 455.97752,1.78006 c -2.40029,13.39598 2.77115,8.91538 0,0 z M 390.928,287.17811 c -1.34649,3.13014 2.16972,2.14043 0,0 z m 551.53607,1.06003 c -3.38046,5.21646 3.94544,13.54094 2.24992,4.34013 -0.4576,-1.42813 -0.24281,-4.47149 -2.24992,-4.34013 z m -552.40904,1.69005 c -3.6078,0.76159 0.32063,2.94106 0,0 z m 0,1.44005 c -3.49716,4.11675 1.07485,4.3761 0,0 z m 544.90332,0.34001 c -1.96109,11.14979 6.87465,0.72319 0,0 z m 5.20181,3.09009 c -2.03663,3.8457 2.88859,4.69533 0,0 z m -1.60194,0.38001 c -4.85311,5.74825 3.72802,13.74195 0,0 z m -571.62335,0.53002 c -4.99857,-0.11169 2.0439,3.02232 0,0 z m 560.09476,0 c -13.94269,21.26401 2.81443,5.64902 0,0 z m -537.84757,0.25001 c -2.92664,1.65046 1.05562,3.19202 0,0 z m -32.09284,1.97005 c -1.26584,4.06539 -1.92974,4.57953 0,0 z m 490.0323,0 c -1.95622,1.6638 1.85259,2.39994 0,0 z m 94.69458,0.81003 c -3.11782,2.86642 3.54083,2.63032 0,0 z m -550.8881,0.87003 c -2.10844,0.72711 0.58458,1.99591 0,0 z m 555.13594,0.72002 c 0.53152,5.21194 -13.8721,9.44505 -8.1537,9.07027 4.70915,-5.26925 7.71116,14.37108 9.10767,4.62014 0.74722,-2.30383 4.75048,0.22352 1.52094,-11.03033 l -1.69021,-1.81667 -0.7847,-0.84341 z m -557.44886,1.88005 c -2.61672,4.80377 3.9205,0.37247 0,0 z m -34.33375,0.90003 c 0.1273,4.65921 -1.02216,1.47692 0,0 z m 456.95849,0.16001 c -6.82714,6.59715 4.6608,22.80412 4.69783,8.06024 -1.64226,-2.38698 -2.85571,-6.01678 -4.69783,-8.06024 z m -458.53344,4.38013 c -0.73728,11.17611 16.42586,9.27171 15.83043,16.15048 -1.9597,22.7631 3.37991,-1.49302 -2.26153,-3.4701 -8.06836,-2.16312 -11.34505,-3.78165 -13.5689,-12.68038 z m 620.59958,1.03003 c -2.82644,5.97497 3.53057,2.5914 0,0 z m -122.24258,3.12009 c -0.52959,5.33625 3.2909,0.98445 0,0 z m 72.61837,0.63002 c -5.47995,-0.51096 -3.76507,8.01328 -10.01664,9.8403 -4.17888,4.42619 -8.01232,13.07384 -12.70754,10.66032 -4.87417,5.11456 -1.02193,17.66273 5.84979,19.9406 5.39835,2.98634 16.24799,4.35232 16.13642,-8.19025 8.06238,-7.68617 -1.20096,-13.95222 3.46487,-21.50065 -1.7579,-3.79499 10.02137,-6.81231 -1.69193,-5.00015 1.78084,-3.55205 -2.51573,-0.85447 -1.03497,-5.75017 z m -532.97874,5.12016 c 0.0358,1.22864 -4.27559,-0.70742 0,0 z m 466.43515,0.91002 c -0.59786,9.2238 13.05991,10.94944 11.46181,20.03399 5.5426,6.65122 9.30911,23.29774 16.91416,24.83736 10.69697,-4.8686 -3.16555,-16.53374 -2.6189,-22.75068 -5.70205,-6.82987 -15.21666,-14.87797 -20.99885,-20.15061 -1.66111,-0.0308 -3.49956,-0.73944 -4.75822,-1.97006 z m 98.51944,11.19034 c -1.26835,4.8582 4.85082,-0.2993 0,0 z m -1.17896,2.31007 c -1.43848,17.20072 3.34352,9.79376 2.95189,2.31007 -4.14514,3.90298 -0.59801,0.39916 -2.95189,-2.31007 z m -8.4147,1.06003 c -8.93866,4.08568 -17.2542,2.16286 -18.08034,17.53053 0.57372,10.09532 4.74791,19.10698 4.40984,1.85005 1.36142,4.55199 10.05062,11.42809 3.99585,-3.29009 13.94299,-9.68275 -10.66035,-0.49307 -2.39391,-10.56032 4.57502,0.75995 16.46102,0.6413 12.06856,-5.53017 z m -81.97803,1.44004 c -4.06265,2.67059 3.92191,6.62502 0,0 z m -501.95687,3.00009 c 3.11264,4.5552 2.07449,4.93219 0,0 z m 601.63726,2.59008 c -4.5628,2.57899 7.21981,1.54829 0,0 z m 5.5798,1.60005 c -11.9828,5.73055 10.42496,9.31945 -0.89996,10.75032 1.99594,6.93223 7.35048,1.11792 16.5594,10.59032 0.0153,11.73875 -0.52855,14.14569 7.55972,12.97039 1.16348,1.15065 4.14588,3.4327 12.52094,-3.23772 0.8937,5.3976 15.9349,18.98282 13.1281,10.07793 -7.4486,-6.21103 -7.5545,-25.09028 -7.8297,-18.31055 -3.7964,-6.79679 -11.42228,-12.48938 -20.24925,-15.03045 -7.17067,-8.28114 -17.58527,14.40442 -15.74943,-5.85018 -2.32732,0.65814 -2.81087,-2.73555 -5.03982,-1.96006 z m -607.36105,0.22001 c 1.48305,10.21988 -0.74375,28.39947 1.12496,6.18018 -1.6273,-1.69725 -3.19726,-3.94975 -1.12496,-6.18018 z m 616.45072,0.50001 c 0.27224,5.43426 6.17423,1.59087 0,0 z m -111.22698,1.50005 c -1.09829,5.50708 6.22532,4.11469 0,0 z m -570.80437,0.09 c -0.44575,6.06624 4.03965,5.34241 0,0 z m -0.48599,1.50005 c -0.94115,1.45863 1.84215,-0.15351 0,0 z m 658.8662,0.28 c -5.78034,0.18572 3.3681,3.41875 0,0 z m -654.95134,0.44002 c -2.26495,0.51825 1.60503,1.98897 0,0 z m 3.51888,0.81002 c -2.82723,0.44799 1.20046,1.87951 0,0 z m 585.76183,0.09 c -4.48432,2.43109 6.31724,8.92907 1.12496,0 l -1.12496,0 z m 56.07698,0 c -0.9025,2.34033 3.42141,-1.23306 0,0 z m 4.55383,0 c -5.968,1.27969 1.17999,1.90516 0,0 z m 10.96161,0.16001 c 1.02956,3.3918 5.52121,-0.88737 0,0 z m 50.48818,0.72002 c -0.8508,3.81189 4.8347,-0.97555 0,0 z m -116.05982,2.75008 c -4.08877,5.09542 5.36866,1.93049 0,0 z m 128.56932,0.19001 c 5.6707,10.20483 11.6837,11.80827 0,0 z m -63.44767,0.43001 c -17.86634,-0.87032 13.11811,7.33127 0,0 z m -9.21567,1.50005 c -6.69313,3.03362 7.64112,2.75043 0,0 z m -10.79961,4.91015 c -5.40822,3.7164 1.68867,8.82288 0,0 z m 86.52285,0.34001 c -3.6393,6.62001 -18.42,7.8943 -3.0599,7.75023 1.693,-1.54458 6.7668,-5.65941 3.0599,-7.75023 z m 7.7397,3.66011 c -0.3544,9.89353 6.6454,9.33061 0,0 z m -60.29777,1.87005 c -5.97894,7.46962 3.10759,5.09727 0,0 z m -85.65891,0.44002 c -1.65629,9.58599 14.89921,8.70027 22.73318,10.56031 2.27809,-1.31127 2.48732,-8.12956 -5.21081,-6.6502 -6.38901,0.54999 -10.54179,-2.18091 -17.52237,-3.91011 z m 150.54658,4.78014 c 1.7208,6.41144 5.3765,2.26174 0,0 z m -0.9,0.47001 c -0.7382,1.73177 1.3513,0.92583 0,0 z m -73.70732,1.16004 c -4.61449,1.91267 3.12649,6.33199 0,0 z m 86.75682,0.84002 c -2.1611,1.39247 1.5838,1.75521 0,0 z m -7.3797,1.47005 c 4.6599,8.04444 7.0733,4.09866 0,0 z m -120.49664,0.25001 c -11.61677,1.7572 11.09551,6.81014 0,0 z m -9.22466,0.28 c 1.71717,4.67219 4.60034,0.45351 0,0 z m 125.2215,0.16001 c -2.1114,1.70435 0.7056,3.69554 0,0 z m -120.40668,0.37001 c -5.16292,2.10052 3.63268,3.90636 0,0 z m 22.85918,0.07 c -6.07265,2.37656 10.947,0.8369 0,0 z m 9.62065,0.18001 c -4.38632,0.28945 -17.29807,10.68209 -7.11874,7.13021 -0.4061,-3.90569 12.32017,-3.87856 7.11874,-7.13021 z m -20.55526,0.1 c -3.57152,5.2664 15.42964,0.0537 0,0 z m 110.37201,0.87003 c -2.2272,5.84556 -1.1455,1.93802 0.99,2.16006 -0.1908,-0.74215 0.2995,-2.53642 -0.99,-2.16006 z m 9.7197,1.88005 c 0.4063,10.71147 4.3258,5.56056 0,0 z m -121.53166,1.44005 c -8.92327,0.51003 8.67585,8.58551 0,0 z m 119.37166,1.06003 c -1.0575,2.97305 3.5573,1.18952 0,0 z m -29.7889,1.25004 c 1.7919,6.87881 5.1834,1.2954 0,0 z m 29.7889,0.53001 c -2.6245,2.62862 5.8237,5.79002 0,0 z m 3.5999,4.69014 c -1.9512,2.49692 5.3294,2.33094 0,0 z m -57.05794,0.62002 c -6.59019,7.37595 -2.26099,29.43056 -13.94949,28.00084 -1.91045,-3.84375 -13.51877,-13.25944 -6.47977,-14.22042 -0.67686,-0.0572 4.96323,-8.8559 0.17999,-8.78027 -1.49178,2.52946 -15.05429,-8.20501 -9.17966,-0.72002 -4.90141,-0.24238 -11.92174,6.54733 -10.41263,10.94033 1.19472,4.27668 -8.50391,-3.68945 -5.3728,-1.34004 -2.17769,-6.56194 -6.62989,2.55171 -5.7598,-0.19001 -4.15818,2.53558 -6.58752,10.24857 -5.74179,7.75024 -4.71554,4.24988 -5.29145,-3.32969 -8.2437,7.81023 -6.19905,10.62793 -19.9919,5.51358 -26.54904,15.63047 0.14986,-9.85238 -8.01766,25.0617 -3.45588,15.31046 -1.0232,0.63714 -3.32234,-3.53647 -2.5559,0.34001 0.94574,9.50068 1.42786,23.5417 -3.82487,29.6909 -3.76469,6.85128 9.48848,7.2839 13.18453,2.13006 10.0269,3.05285 15.29079,-7.21157 25.51408,-6.13018 8.29453,-3.98929 17.47315,1.74674 13.92249,11.91036 3.69096,0.80787 14.86666,-13.20476 5.28281,1.06003 2.4905,-0.18255 1.99784,1.59426 2.7809,8.72026 -4.60339,8.85991 11.95985,5.13957 9.79165,7.72023 1.35958,6.24577 8.73652,-1.6203 14.03949,-1.07003 10.73796,-15.77843 26.74733,-27.41433 31.04883,-47.71144 0.935,-5.28956 0.2498,-20.36923 -3.9598,-16.35049 0.7019,-4.28018 -2.0077,-12.68714 -6.20978,-17.15051 3.60238,-10.45643 -1.19714,-17.00992 -1.97993,-23.2207 -0.50641,-3.32939 -0.36899,-7.32844 -2.06993,-10.13031 z m -34.28876,1.25004 c -8.6915,2.18571 5.35508,2.02073 0,0 z m 104.5762,0.1 c -3.888,2.47227 3.6796,0.22914 0,0 z m -346.79345,0.18001 c -3.47977,4.75098 -6.7853,8.26961 -8.97267,14.28043 -8.35127,-4.49808 -8.49264,10.11157 -7.90172,15.85047 -8.65423,7.91267 0.5893,29.4386 8.36858,15.15589 2.56141,-11.17853 8.41616,-23.195 9.29778,-33.56644 2.69735,7.87248 1.81024,-12.38419 -0.79197,-11.72035 z m 307.55485,1.06003 c 2.7045,4.5955 6.1073,0.18638 0,0 z m 39.5986,0.97003 c -0.2505,2.61511 1.9453,0.0282 0,0 z m -19.5293,1.69005 c 1.6147,2.52087 4.2319,-0.35717 0,0 z m 20.4293,0.72002 c -1.2224,0.95152 1.3052,1.68412 0,0 z m -0.36,9.7803 c -0.5931,2.98319 2.882,-0.19583 0,0 z m 49.0482,0.06 c -1.0196,3.3943 1.8884,-0.27284 0,0 z m -165.13501,1.07003 c 0.34656,0.44712 -0.92802,1.93174 0,0 z m 175.57461,0.90003 c -1.646,3.52524 3.8089,0.29653 0,0 z m -59.7578,0.19 c -2.4656,1.32125 1.699,1.252 0,0 z m 42.0285,2.03006 c -0.6015,1.6133 1.6494,0.68285 0,0 z m -44.5484,0.28001 c -2.5149,5.85981 2.7876,4.87608 0,0 z m 3.0599,3.2801 c -1.6241,3.55619 1.4476,2.8443 0,0 z m -2.7899,2.75008 c -2.2606,2.99377 3.4255,2.38564 0,0 z m 2.6099,0 c -3.5735,0.40476 1.6163,2.61175 0,0 z m 0.09,2.41008 c -2.2678,1.01555 1.5205,2.58953 0,0 z m 32.8488,0.34001 c -9.1392,4.0532 1.2008,4.05253 0,0 z m 0.72,1.69005 c -3.1889,1.89915 0.6801,2.14891 0,0 z m -2.7899,2.75008 c -1.3606,1.72727 0.4984,1.73528 0,0 z m -3.5999,0.91003 c -11.0772,2.29716 2.9417,7.50547 0,0 z m 8.2797,0 c -2.714,0.22834 0.5608,1.80241 0,0 z m -6.1198,2.56007 c -1.615,1.49965 1.5357,1.68574 0,0 z m -962.33521,0.47002 c -0.33067,3.48792 4.104,-0.0586 0,0 z m 932.00631,0 c -1.6382,2.56282 2.7345,0.83037 0,0 z m -0.63,3.97012 c -0.7114,2.56779 1.7194,0.0376 0,0 z m 26.5491,0.09 c -3.5481,1.37974 1.5442,0.99043 0,0 z m -42.2085,2.22007 c -2.1388,6.26853 9.5715,16.57016 2.6099,3.4101 -1.2942,-0.7925 -0.9769,-2.60036 -2.6099,-3.4101 z m 6.5698,1.53004 c -1.5132,3.9106 1.7324,0.2932 0,0 z m 9.1796,0 c -0.4754,1.50007 1.6885,-0.22895 0,0 z m -7.9197,0.88003 c -1.4885,4.16771 1.7556,3.20747 0,0 z m 1.53,3.84012 c -3.2288,1.37996 1.8899,2.44296 0,0 z m -108.7971,52.50158 c -9.10366,3.30628 7.01543,3.04605 0,0 z m 95.1176,6.06018 c -0.8372,7.11004 -4.1556,19.46276 -11.4296,22.66068 1.6691,4.90834 -7.5967,12.54973 3.2399,4.69014 5.7076,-5.4622 7.4082,-4.59776 13.2295,-10.47031 -5.0989,3.12363 -6.7606,-0.82144 -4.4999,-6.6002 -3.872,4.19116 3.3291,-9.79177 -0.5399,-10.28031 z M 381.81133,506.0547 c 1.74466,-1.00919 1.71139,3.65865 0,0 z m 577.52713,1.60005 c -3.27546,1.90981 -1.1393,4.10865 0,0 z m -581.90997,1.09003 c -1.60833,9.3978 6.62154,5.77081 0,0 z m 591.82762,0.59002 c -4.34739,3.23446 0.50983,5.69708 0,0 z m -10.61962,3.57011 c -4.61633,4.42038 -3.80594,17.86784 3.23988,8.00024 9.85897,-9.33357 1.92998,-4.14849 -3.23988,-8.00024 z m 69.02751,7.75023 c -7.0444,8.62556 -22.3639,13.64699 -28.70897,17.22052 -5.96687,2.94437 1.95467,9.84279 6.76727,4.16369 6.5797,-7.8688 19.5996,-9.37513 23.7416,-18.92414 -6.7116,4.53878 -0.1361,-0.21571 -1.7999,-2.46007 z m 2.3399,0.78002 c -2.3108,2.5248 2.3937,0.1869 0,0 z m -646.67162,10.59032 c -2.44026,6.37162 3.11724,3.37443 0,0 z m 4.07685,8.06024 c -1.91059,3.22983 1.50637,2.38226 0,0 z m 1.60194,2.41008 c -0.482,3.36583 3.28626,1.51613 0,0 z m 41.68649,0.09 c -7.84331,2.80375 3.40603,5.80452 0,0 z m -2.98789,0.72002 c -6.71567,1.14912 -0.15683,5.94558 0,0 z m 569.17544,0.44001 c -7.13737,5.27167 2.52792,2.85701 0,0 z m -606.52409,0.87003 c -0.91059,4.10442 3.08159,5.2259 0,0 z m 8.09971,4.91015 c -2.51478,4.48815 4.91781,-0.6907 0,0 z m -5.6788,0.35001 c 1.58551,3.51311 4.30166,0.75415 0,0 z m 3.59987,1.87006 c 3.52818,8.44024 6.57395,-0.19566 0,0 z m 7.98272,1.41004 c -4.82711,0.70123 -0.75626,6.92094 0.73797,1.00003 l -0.73797,-1.00003 z m 2.31291,5.00015 c -1.90269,1.03308 2.50012,0.77792 0,0 z m 66.3996,17.84054 c -1.60144,2.13063 4.50304,0.0253 0,0 z m 2.8709,0.09 c -2.45754,1.7799 2.74753,0.73527 0,0 z m -22.86817,2.94009 c -3.36005,2.07904 4.22373,0.48337 0,0 z m 2.6459,0.35001 c -2.04031,1.37303 2.00373,1.76883 0,0 z m -7.59573,3.03009 c -10.334,3.77579 -3.47542,7.83451 0,0 z m 4.64384,4.34013 c -5.38491,3.83484 -12.36395,8.18785 -12.79754,15.22046 1.50478,5.00443 -0.222,11.51691 5.90379,15.00045 13.48961,7.1547 -3.999,14.41217 -8.88268,11.47034 -5.42119,-2.8856 -6.45771,-2.31304 -9.98964,1.68005 -10.79513,-2.73993 -16.52474,-1.27381 -21.29323,-3.28009 4.47416,5.86548 -23.56725,2.18923 -6.46177,9.78029 -6.1142,3.40456 -18.13436,1.20455 -23.03917,1.32004 -9.2338,-5.0502 -14.02536,5.10561 -25.28008,2.40007 -8.29669,4.01146 -11.49749,1.54605 -22.47219,7.82024 -7.25666,1.57211 17.91855,7.3952 -0.1567,6.01337 -18.05696,-2.49883 -0.83887,6.47145 9.79173,5.29707 25.64271,-0.0675 -0.78372,7.31342 5.03705,5.50006 10.17439,4.94607 20.76685,9.31804 33.45327,7.92533 23.65767,0.29306 -4.69288,2.67095 -13.20922,1.94497 -15.86353,0.33655 -31.50998,-4.44102 -7.55893,3.79835 26.34594,6.74534 54.41005,1.29035 81.45785,3.05186 132.78121,0 265.56241,0 398.34362,0 5.44038,-3.0218 38.03088,-10.85449 18.79133,-10.78033 -9.20586,-1.16698 -20.03807,-6.41046 -12.14957,-13.07039 9.37274,-3.99909 20.05996,-3.83606 25.60124,-11.48726 2.48133,-5.80951 10.55646,-3.70212 17.90319,-6.79329 9.28181,2.0146 22.16533,-9.20926 7.67673,-10.84033 1.16292,-8.8615 -9.95606,-7.38262 -15.43445,-10.31031 1.77919,-9.95676 -14.84618,-10.48951 -22.72418,-11.47034 -9.2181,3.13531 -12.17058,-3.85594 -22.30119,0.44001 -10.08508,2.33469 -12.14901,-12.18807 -21.99521,-3.4701 -11.81763,-7.0157 -26.47744,-1.06216 -39.74256,-3.00009 -15.68801,-2.58949 -29.25345,7.25879 -43.45043,11.00033 -9.58317,11.32312 -10.50224,-0.6559 -4.30184,-5.16016 9.70573,-9.12732 -14.2317,-3.06488 -18.64733,-8.09024 -2.68906,-1.87275 -11.49378,-10.30189 -17.35137,-1.16004 -6.08877,2.33099 -8.3676,0.32987 -17.04539,4.09013 -8.09076,6.29733 -13.68133,5.55998 -20.47426,1.53004 -1.37942,9.66148 -24.9084,7.42405 -21.09524,6.91021 -9.09004,-0.61218 -13.63293,-0.79458 -14.56147,-1.06003 -11.36964,2.7614 -23.16563,1.96533 -34.62175,5.97018 -4.25085,-6.80065 -7.31111,4.86415 -10.66461,-3.91012 -4.28988,7.02412 -6.93544,2.22702 -11.33059,2.75008 -6.00938,13.23218 -5.4357,7.67668 -5.93079,12.63038 -7.06426,5.88047 -18.65856,5.80106 -28.39139,11.39852 -13.16012,11.60766 16.69755,4.31644 10.30204,9.0321 7.1731,3.47056 -16.58343,4.40783 -20.84158,8.9218 -11.09569,-2.50237 -20.12254,8.71926 -29.5296,3.23856 -9.53084,-5.76163 -17.45857,-0.22949 -25.67607,-5.94017 -3.85016,-4.1915 -6.62787,-2.98542 -17.07613,-4.82393 -11.4608,-4.1571 -6.15162,-11.79165 1.3267,-4.42635 18.38413,0.65806 8.79559,0.33405 -0.89997,-6.6502 7.99897,6.15765 22.04638,-1.02148 22.72418,-4.10013 6.53421,-1.99317 -2.16448,-10.66732 -4.47284,-15.72047 -4.89217,-5.69062 -9.76761,-7.27478 -14.08449,-10.15031 -6.03333,-8.38847 5.37972,-4.40814 3.68087,-8.97027 -8.10604,-4.47008 9.11095,-6.36633 5.4538,-9.41028 4.15646,2.56606 2.00634,-3.11698 -1.51194,-2.06006 z m -10.74562,5.06015 c -0.18565,3.98249 3.26563,-0.64367 0,0 z m -1.99792,0.38001 c -1.48561,3.5112 4.55051,2.75421 0,0 z m -1.82694,4.97015 c -2.18386,2.46504 2.89779,2.22773 0,0 z m -1.34995,4.53014 c -6.03006,2.14612 1.50943,9.68156 0,0 z m -0.89997,8.62026 c 2.78183,5.12283 -3.40726,10.65861 1.12496,13.07039 4.49935,-7.4342 6.56119,9.68662 10.71862,-2.41007 -3.20042,-4.40485 -8.46289,-6.12897 -11.84358,-10.66032 z m -6.77675,2.85008 c -7.89533,0.85827 4.29679,6.23306 0,0 z m 3.90586,3.81012 c -10.56839,5.06329 4.42659,2.68838 0,0 z m -41.20051,8.19025 c -9.36607,1.51844 -2.54964,4.51672 5.5438,3.3701 3.77017,-3.25869 -4.33027,-2.13092 -5.5438,-3.3701 z m 44.97137,0.34001 c -2.15855,4.13919 9.22988,2.72555 0,0 z m -53.21508,5.78017 c 0.13577,2.35904 2.7541,-0.0554 0,0 z m -35.65671,3.75011 c -3.55019,3.12846 10.33538,3.67783 0,0 z m 14.31849,0.78003 c -14.84017,0.70249 3.26573,5.70084 0,0 z m -8.5497,1.35004 c -4.33896,1.41408 7.58947,1.61348 0,0 z m 146.27172,3.5601 c -5.83152,4.75747 -7.67164,17.20297 5.11181,10.47032 14.09217,-1.15859 -1.47098,-10.6274 -5.11181,-10.47032 z m -63.33971,2.75009 c 7.84339,8.15811 18.85622,1.77191 2.7963,0.47509 l -2.32451,-0.39494 -0.47179,-0.0802 z m 29.36594,1.59004 c -11.61218,4.60922 2.52995,7.83951 0,0 z m 15.10145,3.72012 c -4.05797,5.05611 -12.90832,2.3721 -0.22499,4.47013 5.98805,3.35104 3.75959,-3.96738 0.22499,-4.47013 z m -152.91347,2.69008 c -5.1743,0.27574 2.07808,2.77096 0,0 z m -9.10767,6.94021 c -0.0898,6.97467 14.84178,1.94902 0,0 z"
     id="path6"
     inkscape:connector-curvature="0" />
  <path
     id="path3393"
     d="m 274.54914,101.72533 c 1.65287,-2.640591 1.65287,-6.91984 0,-9.560429 -2.13755,-3.419523 -3.19189,-7.840626 -3.19835,-12.327502 0.007,-4.497055 1.0607,-8.912978 3.19835,-12.337522 1.65287,-2.645606 1.65287,-6.925189 0,-9.565617 -0.82644,-1.325314 -1.90328,-1.987806 -2.99014,-1.987806 -1.08028,0 -2.16701,0.65245 -2.99344,1.977764 -3.7776,6.039864 -5.69078,13.996933 -5.6842,21.913181 -0.007,7.901378 1.9067,15.858268 5.6842,21.887931 1.65287,2.64058 4.33071,2.64058 5.98358,0 z M 258.11785,43.816199 c -0.84593,-1.345541 -1.94579,-2.018248 -3.052,-2.018248 -1.09976,0 -2.20608,0.672707 -3.04543,2.018248 -6.22442,9.934836 -9.35442,22.995751 -9.34798,36.0212 -0.007,13.010392 3.12356,26.096591 9.34151,36.021361 1.68548,2.69113 4.41196,2.69113 6.09743,0 1.67891,-2.68609 1.67891,-7.04647 0,-9.72722 -4.55194,-7.284038 -6.81647,-16.753623 -6.81647,-26.293811 0,-9.540187 2.26453,-19.019653 6.81647,-26.293806 1.67891,-2.69646 1.67891,-7.056855 0.007,-9.727724 z m 37.9091,52.906499 c 5.97389,0 10.82843,-7.542177 10.82843,-16.834617 0,-9.29241 -4.85454,-16.834417 -10.82843,-16.834417 -5.97702,0 -10.82843,7.542007 -10.82843,16.834417 1e-4,9.29244 4.85141,16.834617 10.82843,16.834617 z m 43.80164,-52.805289 c -1.68547,-2.691111 -4.41183,-2.691111 -6.09096,0 -1.68547,2.686103 -1.68547,7.046484 0,9.727396 4.54862,7.27401 6.81324,16.75362 6.81324,26.293817 0,9.530147 -2.27129,19.009603 -6.81991,26.283768 -1.6788,2.69111 -1.6788,7.05652 0.007,9.72739 0.83946,1.34557 1.93911,2.01826 3.04543,2.01826 1.09976,0 2.20597,-0.67269 3.04534,-2.01826 6.22127,-9.9248 9.35118,-23.010976 9.33815,-36.021368 0.0139,-13.000188 -3.11656,-26.086366 -9.33774,-36.011003 z m -43.77559,66.250481 0,0 c -2.7592,0.01 -5.52485,-1.0471 -8.0301,-3.14633 l -20.95074,86.82329 9.91731,0 5.71016,-10.35976 26.65454,0 5.62243,10.35976 9.92388,0 -20.94742,-86.80305 c -2.47284,2.06895 -5.17994,3.12609 -7.90006,3.12609 z m -0.0651,4.96248 6.70273,37.27574 -13.32721,0 6.62448,-37.27574 z m -13.28816,57.99511 6.66377,-10.35976 13.32712,0 6.66377,10.35976 -26.65466,0 z M 317.29335,58.050705 c -1.65287,2.640584 -1.65287,6.919826 0,9.560424 2.13442,3.419505 3.18855,7.855849 3.19511,12.327493 -0.007,4.497066 -1.06069,8.923199 -3.19511,12.337692 -1.65287,2.64545 -1.65287,6.925028 0,9.565456 0.81988,1.3253 1.90016,1.97776 2.99336,1.97776 1.07381,0 2.16045,-0.65246 2.98689,-1.97776 3.78093,-6.02966 5.6941,-13.99694 5.68108,-21.903148 0.0125,-7.901367 -1.8938,-15.858267 -5.68108,-21.887917 -1.64632,-2.640599 -4.32738,-2.640599 -5.98025,0 z"
     inkscape:connector-curvature="0" />
  <path
     id="path3393-3"
     d="m 381.36321,331.53022 c 1.65287,-2.64059 1.65287,-6.91984 0,-9.56043 -2.13755,-3.41952 -3.19189,-7.84063 -3.19835,-12.3275 0.007,-4.49706 1.0607,-8.91297 3.19835,-12.33751 1.65287,-2.64561 1.65287,-6.92519 0,-9.56562 -0.82644,-1.32532 -1.90328,-1.98781 -2.99013,-1.98781 -1.08029,0 -2.16702,0.65245 -2.99345,1.97777 -3.77759,6.03986 -5.69078,13.99693 -5.6842,21.91317 -0.007,7.90138 1.90671,15.85826 5.6842,21.88793 1.65287,2.64058 4.33071,2.64058 5.98358,0 z m -16.43129,-57.90913 c -0.84593,-1.34554 -1.94579,-2.01825 -3.052,-2.01825 -1.09976,0 -2.20608,0.67271 -3.04543,2.01825 -6.22441,9.93484 -9.35442,22.99576 -9.34798,36.0212 -0.007,13.01039 3.12357,26.09658 9.34151,36.02136 1.68548,2.69113 4.41196,2.69113 6.09743,0 1.67891,-2.68609 1.67891,-7.04647 0,-9.72722 -4.55194,-7.28404 -6.81646,-16.75363 -6.81646,-26.29381 0,-9.54018 2.26452,-19.01965 6.81646,-26.2938 1.67891,-2.69647 1.67891,-7.05686 0.007,-9.72773 z m 37.9091,52.9065 c 5.97389,0 10.82843,-7.54218 10.82843,-16.83462 0,-9.2924 -4.85454,-16.83441 -10.82843,-16.83441 -5.97702,0 -10.82843,7.54201 -10.82843,16.83441 1e-4,9.29244 4.85141,16.83462 10.82843,16.83462 z m 43.80165,-52.80528 c -1.68548,-2.69112 -4.41184,-2.69112 -6.09097,0 -1.68546,2.6861 -1.68546,7.04648 0,9.72739 4.54862,7.27401 6.81324,16.75362 6.81324,26.29381 0,9.53015 -2.27129,19.0096 -6.8199,26.28377 -1.6788,2.69111 -1.6788,7.05651 0.007,9.72738 0.83945,1.34557 1.9391,2.01827 3.04542,2.01827 1.09976,0 2.20598,-0.6727 3.04534,-2.01827 6.22127,-9.92479 9.35118,-23.01097 9.33815,-36.02136 0.0139,-13.00018 -3.11656,-26.08636 -9.33774,-36.01099 z m -43.7756,66.25047 0,0 c -2.75919,0.01 -5.52485,-1.0471 -8.0301,-3.14633 l -20.95074,86.82329 9.91731,0 5.71016,-10.35976 26.65454,0 5.62244,10.35976 9.92387,0 -20.94741,-86.80305 c -2.47284,2.06895 -5.17995,3.12609 -7.90007,3.12609 z m -0.0651,4.96248 6.70273,37.27574 -13.32721,0 6.62448,-37.27574 z m -13.28815,57.99511 6.66376,-10.35977 13.32712,0 6.66377,10.35977 -26.65465,0 z M 424.10743,287.8556 c -1.65287,2.64058 -1.65287,6.91983 0,9.56043 2.13441,3.4195 3.18855,7.85584 3.19511,12.32748 -0.007,4.49707 -1.0607,8.9232 -3.19511,12.33769 -1.65287,2.64545 -1.65287,6.92503 0,9.56546 0.81988,1.3253 1.90015,1.97776 2.99335,1.97776 1.07382,0 2.16045,-0.65246 2.98689,-1.97776 3.78093,-6.02966 5.6941,-13.99694 5.68109,-21.90315 0.0125,-7.90136 -1.89381,-15.85826 -5.68109,-21.88791 -1.64632,-2.6406 -4.32738,-2.6406 -5.98024,0 z"
     inkscape:connector-curvature="0" />
  <path
     id="path3393-6"
     d="m 541.35742,180.01051 c 1.65287,-2.64058 1.65287,-6.91983 0,-9.56042 -2.13755,-3.41953 -3.19189,-7.84063 -3.19835,-12.3275 0.007,-4.49706 1.0607,-8.91298 3.19835,-12.33753 1.65287,-2.6456 1.65287,-6.92518 0,-9.56561 -0.82644,-1.32531 -1.90328,-1.9878 -2.99013,-1.9878 -1.08029,0 -2.16701,0.65245 -2.99345,1.97776 -3.77759,6.03986 -5.69078,13.99693 -5.6842,21.91318 -0.007,7.90137 1.90671,15.85826 5.6842,21.88792 1.65288,2.64058 4.33071,2.64058 5.98358,0 z m -16.43129,-57.90912 c -0.84592,-1.34555 -1.94578,-2.01825 -3.052,-2.01825 -1.09976,0 -2.20608,0.6727 -3.04542,2.01825 -6.22442,9.93483 -9.35443,22.99574 -9.34798,36.0212 -0.007,13.01039 3.12356,26.09658 9.34151,36.02136 1.68547,2.69113 4.41195,2.69113 6.09742,0 1.67892,-2.68609 1.67892,-7.04647 0,-9.72722 -4.55194,-7.28404 -6.81646,-16.75363 -6.81646,-26.29381 0,-9.54019 2.26452,-19.01966 6.81646,-26.29381 1.67892,-2.69646 1.67892,-7.05686 0.007,-9.72772 z m 37.90911,52.90649 c 5.97388,0 10.82842,-7.54217 10.82842,-16.83461 0,-9.29241 -4.85454,-16.83442 -10.82842,-16.83442 -5.97703,0 -10.82844,7.54201 -10.82844,16.83442 10e-5,9.29244 4.85141,16.83461 10.82844,16.83461 z m 43.80164,-52.80529 c -1.68548,-2.69111 -4.41184,-2.69111 -6.09096,0 -1.68547,2.68611 -1.68547,7.04649 0,9.72741 4.54861,7.27401 6.81324,16.75361 6.81324,26.29381 0,9.53015 -2.2713,19.0096 -6.81991,26.28377 -1.6788,2.69111 -1.6788,7.05651 0.007,9.72738 0.83945,1.34557 1.9391,2.01826 3.04542,2.01826 1.09976,0 2.20598,-0.67269 3.04534,-2.01826 6.22127,-9.9248 9.35119,-23.01097 9.33815,-36.02136 0.0139,-13.00019 -3.11656,-26.08637 -9.33773,-36.01101 z m -43.7756,66.25049 0,0 c -2.75919,0.01 -5.52485,-1.0471 -8.03009,-3.14634 l -20.95074,86.8233 9.91731,0 5.71015,-10.35976 26.65454,0 5.62244,10.35976 9.92388,0 -20.94742,-86.80305 c -2.47284,2.06895 -5.17994,3.12609 -7.90007,3.12609 z m -0.0651,4.96248 6.70274,37.27574 -13.32722,0 6.62448,-37.27574 z m -13.28815,57.9951 6.66376,-10.35976 13.32713,0 6.66376,10.35976 -26.65465,0 z m 34.59358,-115.07477 c -1.65287,2.64059 -1.65287,6.91983 0,9.56043 2.13442,3.4195 3.18855,7.85584 3.19511,12.32749 -0.007,4.49706 -1.06069,8.9232 -3.19511,12.33769 -1.65287,2.64545 -1.65287,6.92503 0,9.56546 0.81988,1.3253 1.90015,1.97776 2.99335,1.97776 1.07382,0 2.16046,-0.65246 2.9869,-1.97776 3.78092,-6.02966 5.69409,-13.99694 5.68108,-21.90315 0.0125,-7.90137 -1.8938,-15.85827 -5.68108,-21.88792 -1.64632,-2.6406 -4.32739,-2.6406 -5.98025,0 z"
     inkscape:connector-curvature="0" />
  <path
     id="path3393-7"
     d="m 816.80202,113.34184 c 1.65287,-2.64059 1.65287,-6.91984 0,-9.56043 -2.13755,-3.41952 -3.19189,-7.84063 -3.19835,-12.327505 0.007,-4.497055 1.0607,-8.912978 3.19835,-12.337521 1.65287,-2.6456 1.65287,-6.925189 0,-9.565618 -0.82644,-1.32531 -1.90328,-1.9878 -2.99013,-1.9878 -1.08029,0 -2.16702,0.65245 -2.99345,1.977759 -3.77759,6.039862 -5.69078,13.996932 -5.6842,21.91318 -0.007,7.901378 1.9067,15.858275 5.6842,21.887935 1.65287,2.64058 4.33071,2.64058 5.98358,0 z M 800.37073,55.432708 c -0.84593,-1.345542 -1.94579,-2.018248 -3.052,-2.018248 -1.09976,0 -2.20608,0.672706 -3.04543,2.018248 -6.22441,9.934836 -9.35442,22.995755 -9.34798,36.021197 -0.007,13.010395 3.12357,26.096585 9.34151,36.021365 1.68548,2.69113 4.41196,2.69113 6.09743,0 1.67891,-2.68609 1.67891,-7.04647 0,-9.72722 -4.55194,-7.28404 -6.81646,-16.75362 -6.81646,-26.293815 0,-9.540187 2.26452,-19.019652 6.81646,-26.293803 1.67891,-2.696461 1.67891,-7.056856 0.007,-9.727724 z m 37.9091,52.906502 c 5.97389,0 10.82843,-7.54218 10.82843,-16.834623 0,-9.29241 -4.85454,-16.834417 -10.82843,-16.834417 -5.97702,0 -10.82843,7.542007 -10.82843,16.834417 10e-5,9.292443 4.85141,16.834623 10.82843,16.834623 z m 43.80165,-52.805292 c -1.68548,-2.691111 -4.41184,-2.691111 -6.09097,0 -1.68546,2.686103 -1.68546,7.046484 0,9.727396 4.54862,7.274012 6.81324,16.753617 6.81324,26.293814 0,9.530152 -2.27129,19.009602 -6.8199,26.283772 -1.6788,2.69111 -1.6788,7.05652 0.007,9.72739 0.83946,1.34557 1.93911,2.01826 3.04543,2.01826 1.09976,0 2.20598,-0.67269 3.04534,-2.01826 6.22127,-9.9248 9.35118,-23.01098 9.33815,-36.021372 0.0139,-13.000181 -3.11656,-26.086363 -9.33774,-36.011 z m -43.7756,66.250482 0,0 c -2.75919,0.01 -5.52485,-1.0471 -8.0301,-3.14633 l -20.95074,86.82329 9.91731,0 5.71016,-10.35976 26.65454,0 5.62244,10.35976 9.92387,0 -20.94741,-86.80305 c -2.47284,2.06895 -5.17995,3.12609 -7.90007,3.12609 z m -0.0651,4.96248 6.70273,37.27574 -13.32721,0 6.62448,-37.27574 z m -13.28815,57.99511 6.66376,-10.35976 13.32712,0 6.66377,10.35976 -26.65465,0 z M 859.54624,69.667209 c -1.65288,2.64059 -1.65288,6.919829 0,9.560428 2.13441,3.419503 3.18854,7.855847 3.19511,12.327491 -0.007,4.497066 -1.0607,8.923202 -3.19511,12.337692 -1.65288,2.64545 -1.65288,6.92503 0,9.56546 0.81988,1.3253 1.90015,1.97776 2.99335,1.97776 1.07382,0 2.16045,-0.65246 2.98689,-1.97776 3.78093,-6.02966 5.6941,-13.996944 5.68108,-21.903152 0.0125,-7.901368 -1.8938,-15.858267 -5.68108,-21.887919 -1.64632,-2.640599 -4.32738,-2.640599 -5.98024,0 z"
     inkscape:connector-curvature="0" />
  <path
     id="path3393-5"
     d="m 934.97958,364.86456 c 1.65287,-2.64059 1.65287,-6.91984 0,-9.56043 -2.13755,-3.41952 -3.19189,-7.84062 -3.19835,-12.3275 0.007,-4.49705 1.0607,-8.91298 3.19835,-12.33752 1.65287,-2.64561 1.65287,-6.92519 0,-9.56562 -0.82644,-1.32531 -1.90328,-1.98781 -2.99014,-1.98781 -1.08028,0 -2.16701,0.65245 -2.99344,1.97777 -3.7776,6.03986 -5.69078,13.99693 -5.68421,21.91318 -0.007,7.90138 1.90671,15.85827 5.68421,21.88793 1.65287,2.64058 4.3307,2.64058 5.98358,0 z m -16.4313,-57.90913 c -0.84592,-1.34554 -1.94578,-2.01824 -3.05199,-2.01824 -1.09976,0 -2.20608,0.6727 -3.04543,2.01824 -6.22442,9.93484 -9.35442,22.99575 -9.34798,36.0212 -0.007,13.01039 3.12356,26.09659 9.34151,36.02137 1.68548,2.69113 4.41196,2.69113 6.09742,0 1.67892,-2.6861 1.67892,-7.04648 0,-9.72723 -4.55193,-7.28404 -6.81646,-16.75362 -6.81646,-26.29381 0,-9.54019 2.26453,-19.01965 6.81646,-26.2938 1.67892,-2.69646 1.67892,-7.05686 0.007,-9.72773 z m 37.90911,52.9065 c 5.9739,0 10.82842,-7.54218 10.82842,-16.83462 0,-9.29241 -4.85452,-16.83441 -10.82842,-16.83441 -5.97703,0 -10.82844,7.542 -10.82844,16.83441 10e-5,9.29244 4.85141,16.83462 10.82844,16.83462 z m 43.80161,-52.80529 c -1.68546,-2.69111 -4.41182,-2.69111 -6.09098,0 -1.68546,2.6861 -1.68546,7.04648 0,9.72739 4.54861,7.27402 6.81328,16.75363 6.81328,26.29382 0,9.53015 -2.27133,19.00961 -6.81994,26.28378 -1.6788,2.69111 -1.6788,7.05651 0.009,9.72738 0.83949,1.34557 1.93916,2.01826 3.04549,2.01826 1.09976,0 2.20591,-0.67269 3.04535,-2.01826 6.2213,-9.9248 9.3512,-23.01097 9.3381,-36.02137 0.014,-13.00019 -3.1166,-26.08636 -9.3377,-36.011 z m -43.77557,66.25048 0,0 c -2.75919,0.01 -5.52484,-1.0471 -8.03009,-3.14633 l -20.95074,86.82329 9.91731,0 5.71016,-10.35976 26.6545,0 5.62245,10.35976 9.92386,0 -20.94738,-86.80305 c -2.47284,2.06895 -5.17994,3.12609 -7.90007,3.12609 z m -0.0651,4.96248 6.70275,37.27575 -13.32723,0 6.62448,-37.27575 z m -13.28816,57.99511 6.66377,-10.35976 13.32714,0 6.66372,10.35976 -26.65463,0 z m 34.5936,-115.07478 c -1.65288,2.64059 -1.65288,6.91983 0,9.56043 2.13436,3.41951 3.1885,7.85585 3.19506,12.32749 -0.009,4.49707 -1.0607,8.9232 -3.19506,12.3377 -1.65288,2.64544 -1.65288,6.92502 0,9.56545 0.81987,1.3253 1.9001,1.97776 2.99329,1.97776 1.07384,0 2.16046,-0.65246 2.9869,-1.97776 3.78095,-6.02966 5.6941,-13.99694 5.68114,-21.90315 0.0126,-7.90136 -1.8938,-15.85826 -5.68114,-21.88792 -1.64631,-2.64059 -4.32731,-2.64059 -5.98019,0 z"
     inkscape:connector-curvature="0" />
  <path
     id="path3393-35"
     d="m 621.35453,325.46943 c 1.65287,-2.64059 1.65287,-6.91983 0,-9.56042 -2.13755,-3.41953 -3.19188,-7.84063 -3.19835,-12.32751 0.007,-4.49705 1.06071,-8.91297 3.19835,-12.33752 1.65287,-2.64561 1.65287,-6.92519 0,-9.56561 -0.82644,-1.32531 -1.90328,-1.98781 -2.99013,-1.98781 -1.08029,0 -2.16701,0.65245 -2.99344,1.97777 -3.7776,6.03986 -5.69079,13.99693 -5.68421,21.91317 -0.007,7.90138 1.90671,15.85827 5.68421,21.88793 1.65287,2.64058 4.3307,2.64058 5.98357,0 z M 604.92324,267.5603 c -0.84592,-1.34554 -1.94578,-2.01824 -3.052,-2.01824 -1.09976,0 -2.20608,0.6727 -3.04542,2.01824 -6.22442,9.93484 -9.35443,22.99575 -9.34798,36.0212 -0.007,13.0104 3.12356,26.09659 9.34151,36.02137 1.68547,2.69113 4.41195,2.69113 6.09742,0 1.67892,-2.68609 1.67892,-7.04647 0,-9.72722 -4.55194,-7.28404 -6.81646,-16.75363 -6.81646,-26.29382 0,-9.54018 2.26452,-19.01965 6.81646,-26.2938 1.67892,-2.69646 1.67892,-7.05686 0.007,-9.72773 z m 37.90911,52.9065 c 5.97388,0 10.82842,-7.54217 10.82842,-16.83461 0,-9.29241 -4.85454,-16.83442 -10.82842,-16.83442 -5.97703,0 -10.82844,7.54201 -10.82844,16.83442 10e-5,9.29244 4.85141,16.83461 10.82844,16.83461 z m 43.80164,-52.80529 c -1.68548,-2.69111 -4.41184,-2.69111 -6.09096,0 -1.68547,2.6861 -1.68547,7.04649 0,9.7274 4.54861,7.27402 6.81324,16.75362 6.81324,26.29382 0,9.53014 -2.2713,19.0096 -6.81991,26.28377 -1.6788,2.69111 -1.6788,7.05651 0.007,9.72738 0.83945,1.34557 1.9391,2.01826 3.04543,2.01826 1.09976,0 2.20597,-0.67269 3.04533,-2.01826 6.22127,-9.9248 9.35119,-23.01097 9.33815,-36.02136 0.0139,-13.00019 -3.11656,-26.08637 -9.33773,-36.01101 z m -43.7756,66.25049 0,0 c -2.75919,0.01 -5.52484,-1.0471 -8.03009,-3.14634 l -20.95074,86.8233 9.91731,0 5.71016,-10.35977 26.65453,0 5.62244,10.35977 9.92388,0 -20.94742,-86.80306 c -2.47284,2.06896 -5.17994,3.1261 -7.90007,3.1261 z m -0.0651,4.96248 6.70274,37.27574 -13.32722,0 6.62448,-37.27574 z m -13.28815,57.9951 6.66376,-10.35976 13.32713,0 6.66376,10.35976 -26.65465,0 z m 34.59358,-115.07477 c -1.65287,2.64059 -1.65287,6.91983 0,9.56043 2.13442,3.4195 3.18855,7.85584 3.19511,12.32749 -0.007,4.49706 -1.06069,8.9232 -3.19511,12.33769 -1.65287,2.64545 -1.65287,6.92503 0,9.56546 0.81988,1.3253 1.90015,1.97776 2.99335,1.97776 1.07382,0 2.16046,-0.65246 2.9869,-1.97776 3.78092,-6.02966 5.69409,-13.99694 5.68108,-21.90315 0.0125,-7.90137 -1.8938,-15.85827 -5.68108,-21.88792 -1.64632,-2.6406 -4.32739,-2.6406 -5.98025,0 z"
     inkscape:connector-curvature="0" />
</svg>
