<?xml version="1.0" encoding="UTF-8"?>
<svg width="132px" height="30px" viewBox="0 0 132 30" version="1.1" xmlns="http://www.w3.org/2000/svg" xmlns:xlink="http://www.w3.org/1999/xlink">
    <!-- Generator: Sketch 56.2 (81672) - https://sketch.com -->
    <title>logo-transparent</title>
    <desc>Created with Sketch.</desc>
    <g id="Page-1" stroke="none" stroke-width="1" fill="none" fill-rule="evenodd">
        <g id="logo-transparent" fill="#FFFFFF" fill-rule="nonzero">
            <path d="M98.430829,8.05927935 C96.7780725,8.05927935 95.1920941,8.73639093 94.0401729,9.92546494 L94.0401729,3.63328167 C94.0401729,3.43510267 93.8732278,3.26995351 93.6728937,3.26995351 L93.6728937,3.26995351 L91.4358294,3.26995351 C91.2354953,3.26995351 91.0685502,3.43510267 91.0685502,3.63328167 L91.0685502,20.6436459 C91.0685502,20.8418249 91.2354953,21.006974 91.4358294,21.006974 L93.6728937,21.006974 C93.8732278,21.006974 94.0401729,20.8418249 94.0401729,20.6436459 L94.0401729,20.6436459 L94.0401729,19.4710868 C95.1920941,20.6601608 96.761378,21.3372724 98.430829,21.3372724 C101.919981,21.3372724 104.741354,18.3645874 104.741354,14.6982759 C104.741354,11.0319644 101.919981,8.05927935 98.430829,8.05927935 Z M97.9132992,18.6783708 C95.7930964,18.6783708 94.0735619,16.9277896 94.0568674,14.7478206 L94.0568674,14.6487311 C94.0902565,12.4687621 95.7930964,10.7181809 97.9132992,10.7181809 C100.050196,10.7181809 101.769731,12.5017919 101.769731,14.6982759 C101.769731,16.8947598 100.033502,18.6783708 97.9132992,18.6783708 L97.9132992,18.6783708 Z" id="Shape"></path>
            <path d="M112.971747,8.05927935 C109.198788,8.05927935 106.143692,11.0319644 106.143692,14.6982759 C106.143692,18.3645874 109.198788,21.3372724 112.971747,21.3372724 C116.744706,21.3372724 119.799801,18.3645874 119.799801,14.6982759 C119.799801,11.0319644 116.744706,8.05927935 112.971747,8.05927935 Z M112.955052,18.6783708 C110.818155,18.6783708 109.098621,16.8947598 109.098621,14.6982759 C109.098621,12.5017919 110.83485,10.7181809 112.955052,10.7181809 C115.075255,10.7181809 116.811484,12.5017919 116.811484,14.6982759 C116.811484,16.8947598 115.075255,18.6783708 112.955052,18.6783708 L112.955052,18.6783708 Z" id="Shape"></path>
            <path d="M71.2187782,8.38957768 L68.9817139,8.38957768 C68.7813798,8.38957768 68.6144347,8.55472685 68.6144347,8.75290585 L68.6144347,8.75290585 L68.6144347,9.92546494 C67.4625135,8.73639093 65.8932296,8.05927935 64.2237787,8.05927935 C60.7346262,8.05927935 57.913254,11.0319644 57.913254,14.6982759 C57.913254,18.3645874 60.7346262,21.3372724 64.2237787,21.3372724 C65.8765351,21.3372724 67.4625135,20.6601608 68.6144347,19.4710868 L68.6144347,20.6436459 C68.6144347,20.8418249 68.7813798,21.006974 68.9817139,21.006974 L68.9817139,21.006974 L71.2187782,21.006974 C71.4191123,21.006974 71.5860574,20.8418249 71.5860574,20.6436459 L71.5860574,20.6436459 L71.5860574,8.75290585 C71.5860574,8.55472685 71.4191123,8.38957768 71.2187782,8.38957768 Z M64.7413085,18.6783708 C62.6044112,18.6783708 60.8848767,16.8947598 60.8848767,14.6982759 C60.8848767,12.5017919 62.6211057,10.7181809 64.7413085,10.7181809 C66.8615112,10.7181809 68.5810457,12.4687621 68.5977402,14.6487311 L68.5977402,14.7478206 C68.5810457,16.9277896 66.8615112,18.6783708 64.7413085,18.6783708 L64.7413085,18.6783708 Z" id="Shape"></path>
            <path d="M82.3874052,8.05927935 C80.7346487,8.05927935 79.1486703,8.73639093 77.9967491,9.92546494 L77.9967491,8.75290585 C77.9967491,8.55472685 77.829804,8.38957768 77.6294699,8.38957768 L77.6294699,8.38957768 L75.3924056,8.38957768 C75.1920715,8.38957768 75.0251264,8.55472685 75.0251264,8.75290585 L75.0251264,8.75290585 L75.0251264,25.7632701 C75.0251264,25.9614491 75.1920715,26.1265982 75.3924056,26.1265982 L75.3924056,26.1265982 L77.6294699,26.1265982 C77.829804,26.1265982 77.9967491,25.9614491 77.9967491,25.7632701 L77.9967491,25.7632701 L77.9967491,19.4710868 C79.1486703,20.6601608 80.7179542,21.3372724 82.3874052,21.3372724 C85.8765577,21.3372724 88.6979298,18.3645874 88.6979298,14.6982759 C88.6979298,11.0319644 85.8765577,8.05927935 82.3874052,8.05927935 Z M81.8698754,18.6783708 C79.7496727,18.6783708 78.0301382,16.9277896 78.0134437,14.7478206 L78.0134437,14.6487311 C78.0468327,12.4687621 79.7496727,10.7181809 81.8698754,10.7181809 C84.0067726,10.7181809 85.7263071,12.5017919 85.7263071,14.6982759 C85.7263071,16.8947598 84.0067726,18.6783708 81.8698754,18.6783708 L81.8698754,18.6783708 Z" id="Shape"></path>
            <path d="M51.2187556,8.05927935 C49.5493047,8.07579427 48.0301043,9.03365943 47.3122404,10.5365169 C46.4942094,9.0006296 44.8581475,8.04276443 43.1052239,8.05927935 C41.7362742,8.05927935 40.4507969,8.71987602 39.6494604,9.80986052 L39.6494604,8.75290585 C39.6494604,8.55472685 39.4825154,8.38957768 39.2821812,8.38957768 L39.2821812,8.38957768 L37.0451169,8.38957768 C36.8447828,8.38957768 36.6778377,8.55472685 36.6778377,8.75290585 L36.6778377,8.75290585 L36.6778377,20.6436459 C36.6778377,20.8418249 36.8447828,21.006974 37.0451169,21.006974 L37.0451169,21.006974 L39.2821812,21.006974 C39.4825154,21.006974 39.6494604,20.8418249 39.6494604,20.6436459 L39.6494604,20.6436459 L39.6494604,13.5257168 C39.732933,11.9402848 40.8514651,10.6686362 42.2204149,10.6686362 C43.6394483,10.6686362 44.8247584,11.8411953 44.8247584,13.3770825 L44.8247584,20.6436459 C44.8247584,20.8418249 44.9917035,21.006974 45.1920377,21.006974 L47.4457965,21.006974 C47.6461306,21.006974 47.8130757,20.8418249 47.8130757,20.6436459 L47.8130757,20.6436459 L47.7963812,13.2449632 C47.9967153,11.7916505 49.0484694,10.6686362 50.3339466,10.6686362 C51.75298,10.6686362 52.9382901,11.8411953 52.9382901,13.3770825 L52.9382901,20.6436459 C52.9382901,20.8418249 53.1052352,21.006974 53.3055694,21.006974 L55.5593282,21.006974 C55.7596623,21.006974 55.9266074,20.8418249 55.9266074,20.6436459 L55.9266074,20.6436459 L55.9099129,12.4687621 C55.9099129,10.0245544 53.8064046,8.05927935 51.2187556,8.05927935 Z" id="Shape"></path>
            <path d="M131.836543,20.4950116 L127.963417,14.665246 L131.803154,8.88502518 C131.903321,8.73639093 131.853237,8.52169702 131.702987,8.42260752 C131.652903,8.38957768 131.586125,8.37306277 131.519347,8.37306277 L128.931698,8.37306277 C128.731364,8.37306277 128.547724,8.47215227 128.447557,8.63730143 L126.193799,12.3861875 L123.94004,8.65381635 C123.839873,8.48866718 123.656233,8.38957768 123.455899,8.38957768 L120.86825,8.38957768 C120.68461,8.38957768 120.53436,8.53821193 120.53436,8.71987602 C120.53436,8.78593568 120.551054,8.85199535 120.584443,8.9015401 L124.424181,14.6817609 L120.551054,20.5115265 C120.450887,20.6601608 120.500971,20.8748547 120.651221,20.9739442 C120.701305,21.006974 120.768083,21.023489 120.834861,21.023489 L123.42251,21.023489 C123.622844,21.023489 123.806484,20.9243995 123.906651,20.7592503 L126.210493,16.9608194 L128.514335,20.7592503 C128.614502,20.9243995 128.798142,21.023489 128.998476,21.023489 L131.552736,21.023489 C131.736376,21.023489 131.886626,20.8748547 131.886626,20.6931906 C131.886626,20.627131 131.869932,20.5610713 131.836543,20.4950116 Z" id="Shape"></path>
            <path d="M14.8414191,0.0165149167 C6.64441485,0.0165149167 0,6.58945176 0,14.6982759 C0,22.8071 6.64441485,29.3800368 14.8414191,29.3800368 C23.0384233,29.3800368 29.6828382,22.8071 29.6828382,14.6982759 C29.6828382,6.58945176 23.0384233,0.0165149167 14.8414191,0.0165149167 Z M21.8865022,18.2985277 C16.8113712,23.3190624 7.74625248,21.7171155 7.74625248,21.7171155 C7.74625248,21.7171155 6.11019054,12.7660306 11.202016,7.72898102 C14.0233881,4.93796009 18.6978508,5.05356451 21.652779,7.96018985 C24.6077072,10.8668152 24.7078743,15.5075068 21.8865022,18.2985277 L21.8865022,18.2985277 Z" id="Shape"></path>
            <polygon id="Shape" points="16.5442591 8.62078652 15.0918367 11.5769566 12.1035195 13.0137544 15.0918367 14.4505521 16.5442591 17.4067222 17.9966814 14.4505521 20.9849986 13.0137544 17.9966814 11.5769566"></polygon>
        </g>
    </g>
</svg>