<?xml version="1.0" encoding="UTF-8" standalone="no"?>
<svg xmlns:dc="http://purl.org/dc/elements/1.1/" xmlns:cc="http://creativecommons.org/ns#" xmlns:rdf="http://www.w3.org/1999/02/22-rdf-syntax-ns#" xmlns:svg="http://www.w3.org/2000/svg" xmlns="http://www.w3.org/2000/svg" xmlns:sodipodi="http://sodipodi.sourceforge.net/DTD/sodipodi-0.dtd" xmlns:inkscape="http://www.inkscape.org/namespaces/inkscape" width="153.36252mm" height="72.679779mm" viewBox="0 0 153.36252 72.679779" id="svg5004" version="1.1" inkscape:version="0.91+devel r" sodipodi:docname="mountains.svg">
  <defs id="defs5006"/>
  <sodipodi:namedview id="base" pagecolor="#ffffff" bordercolor="#666666" borderopacity="1.0" inkscape:pageopacity="0.0" inkscape:pageshadow="2" inkscape:zoom="0.35" inkscape:cx="-595.49165" inkscape:cy="479.10452" inkscape:document-units="mm" inkscape:current-layer="layer1" showgrid="false" inkscape:window-width="2495" inkscape:window-height="1416" inkscape:window-x="1985" inkscape:window-y="24" inkscape:window-maximized="1" fit-margin-top="0" fit-margin-left="0" fit-margin-right="0" fit-margin-bottom="0"/>
  <metadata id="metadata5009">
    <rdf:RDF>
      <cc:Work rdf:about="">
        <dc:format>image/svg+xml</dc:format>
        <dc:type rdf:resource="http://purl.org/dc/dcmitype/StillImage"/>
        <dc:title/>
      </cc:Work>
    </rdf:RDF>
  </metadata>
  <g inkscape:label="Layer 1" inkscape:groupmode="layer" id="layer1" transform="translate(-31.227044,-69.67335)">
    <g style="display:inline" id="g8014-3-6-33-8-1-69-3-0-5-6" transform="matrix(2.2708718,0,0,2.796922,-1423.0559,-710.7462)">
      <path sodipodi:nodetypes="ccccc" inkscape:connector-curvature="0" id="path7886-5-5-4-6-22-2-96-9-8-1-09-2" d="m 654.43449,298.99086 18.5189,-17.62065 17.275,17.27503 -9.8522,0.71429 c -7.5107,3.2946 -12.4626,-7.09202 -25.9417,-0.36867 z" style="display:inline;fill:#e2b38b;fill-opacity:1;fill-rule:evenodd;stroke:none;stroke-width:1.71014011px;stroke-linecap:butt;stroke-linejoin:miter;stroke-opacity:1"/>
      <path sodipodi:nodetypes="cccccc" inkscape:connector-curvature="0" id="path7886-5-1-8-05-8-06-43-06-7-5-9" d="m 654.23239,297.75192 c 6.1592,-5.86135 8.2316,-8.08992 18.5189,-17.62065 8.4392,6.09346 12.4609,11.63472 17.275,17.27503 l -10.7451,0 c -1.6584,-3.6623 -6.8961,-7.3246 -11.2286,-10.9869 z" style="display:inline;fill:#ae805e;fill-opacity:1;fill-rule:evenodd;stroke:#000000;stroke-width:1.71014011px;stroke-linecap:butt;stroke-linejoin:miter;stroke-opacity:1"/>
      <path sodipodi:nodetypes="ccccc" inkscape:connector-curvature="0" id="path7886-5-56-0-7-50-9-2-1-878-1-6-8" d="m 672.60733,281.62854 c 8.4392,6.09346 12.58517,11.22047 17.39927,16.86078 l -11.36646,-0.12427 c -1.6584,-3.6623 -7.76601,-7.78027 -12.09851,-11.44257 z" style="display:inline;fill:#ae805e;fill-opacity:1;fill-rule:evenodd;stroke:none;stroke-width:1.71014011px;stroke-linecap:butt;stroke-linejoin:miter;stroke-opacity:1"/>
    </g>
    <g style="display:inline" id="g8014-3-6-33-8-1-69-3-0-5" transform="matrix(2.2811258,0,0,2.2811258,-1393.6764,-542.13189)">
      <path sodipodi:nodetypes="ccccc" inkscape:connector-curvature="0" id="path7886-5-5-4-6-22-2-96-9-8-1-09" d="m 654.43449,298.99086 18.5189,-17.62065 17.275,17.27503 -9.8522,0.71429 c -7.5107,3.2946 -12.4626,-7.09202 -25.9417,-0.36867 z" style="display:inline;fill:#e2b38b;fill-opacity:1;fill-rule:evenodd;stroke:none;stroke-width:1.71014011px;stroke-linecap:butt;stroke-linejoin:miter;stroke-opacity:1"/>
      <path sodipodi:nodetypes="cccccc" inkscape:connector-curvature="0" id="path7886-5-1-8-05-8-06-43-06-7-5" d="m 654.23239,297.75192 c 6.1592,-5.86135 8.2316,-8.08992 18.5189,-17.62065 8.4392,6.09346 12.4609,11.63472 17.275,17.27503 l -10.7451,0 c -1.6584,-3.6623 -6.8961,-7.3246 -11.2286,-10.9869 z" style="display:inline;fill:#ae805e;fill-opacity:1;fill-rule:evenodd;stroke:#000000;stroke-width:1.71014011px;stroke-linecap:butt;stroke-linejoin:miter;stroke-opacity:1"/>
      <path sodipodi:nodetypes="ccccc" inkscape:connector-curvature="0" id="path7886-5-56-0-7-50-9-2-1-878-1-6" d="m 672.60733,281.62854 c 8.4392,6.09346 12.58517,11.22047 17.39927,16.86078 l -11.36646,-0.12427 c -1.6584,-3.6623 -7.76601,-7.78027 -12.09851,-11.44257 z" style="display:inline;fill:#ae805e;fill-opacity:1;fill-rule:evenodd;stroke:none;stroke-width:1.71014011px;stroke-linecap:butt;stroke-linejoin:miter;stroke-opacity:1"/>
    </g>
    <g style="display:inline" id="g8014-3-6-33-8-1-69-3-0-5-1" transform="matrix(2.2811258,0,0,2.2811258,-1459.8147,-542.03859)">
      <path sodipodi:nodetypes="ccccc" inkscape:connector-curvature="0" id="path7886-5-5-4-6-22-2-96-9-8-1-09-1" d="m 654.43449,298.99086 18.5189,-17.62065 17.275,17.27503 -9.8522,0.71429 c -7.5107,3.2946 -12.4626,-7.09202 -25.9417,-0.36867 z" style="display:inline;fill:#e2b38b;fill-opacity:1;fill-rule:evenodd;stroke:none;stroke-width:1.71014011px;stroke-linecap:butt;stroke-linejoin:miter;stroke-opacity:1"/>
      <path sodipodi:nodetypes="cccccc" inkscape:connector-curvature="0" id="path7886-5-1-8-05-8-06-43-06-7-5-7" d="m 654.23239,297.75192 c 6.1592,-5.86135 8.2316,-8.08992 18.5189,-17.62065 8.4392,6.09346 12.4609,11.63472 17.275,17.27503 l -10.7451,0 c -1.6584,-3.6623 -6.8961,-7.3246 -11.2286,-10.9869 z" style="display:inline;fill:#ae805e;fill-opacity:1;fill-rule:evenodd;stroke:#000000;stroke-width:1.71014011px;stroke-linecap:butt;stroke-linejoin:miter;stroke-opacity:1"/>
      <path sodipodi:nodetypes="ccccc" inkscape:connector-curvature="0" id="path7886-5-56-0-7-50-9-2-1-878-1-6-0" d="m 672.60733,281.62854 c 8.4392,6.09346 12.58517,11.22047 17.39927,16.86078 l -11.36646,-0.12427 c -1.6584,-3.6623 -7.76601,-7.78027 -12.09851,-11.44257 z" style="display:inline;fill:#ae805e;fill-opacity:1;fill-rule:evenodd;stroke:none;stroke-width:1.71014011px;stroke-linecap:butt;stroke-linejoin:miter;stroke-opacity:1"/>
    </g>
  </g>
</svg>
